<svg xmlns="http://www.w3.org/2000/svg" width="1600" height="400"><path d="M64,493L3,495L328,510Z" fill="#a07ba4" stroke="#a07ba4" stroke-width="1.51"/><path d="M491,-112L713,-107L759,-109Z" fill="#c6d3e7" stroke="#c6d3e7" stroke-width="1.51"/><path d="M692,498L583,502L788,500Z" fill="#7d5d93" stroke="#7d5d93" stroke-width="1.51"/><path d="M788,500L583,502L977,510Z" fill="#78558e" stroke="#78558e" stroke-width="1.51"/><path d="M583,502L328,510L977,510Z" fill="#7e6093" stroke="#7e6093" stroke-width="1.51"/><path d="M759,-109L965,-109L1070,-111Z" fill="#c0b9da" stroke="#c0b9da" stroke-width="1.51"/><path d="M491,-112L759,-109L1070,-111Z" fill="#c1c8e1" stroke="#c1c8e1" stroke-width="1.51"/><path d="M310,-115L491,-112L1070,-111Z" fill="#c7d6e8" stroke="#c7d6e8" stroke-width="1.51"/><path d="M1070,-111L1153,-101L1283,-99Z" fill="#bfa3d0" stroke="#bfa3d0" stroke-width="1.51"/><path d="M1070,-111L1283,-99L1342,-103Z" fill="#bf9ecd" stroke="#bf9ecd" stroke-width="1.51"/><path d="M1342,-103L1483,-102L1525,-104Z" fill="#bd8dbd" stroke="#bd8dbd" stroke-width="1.51"/><path d="M1070,-111L1342,-103L1525,-104Z" fill="#bf97c8" stroke="#bf97c8" stroke-width="1.51"/><path d="M1435,486L1309,506L1598,486Z" fill="#710f6f" stroke="#710f6f" stroke-width="1.51"/><path d="M1488,471L1435,486L1598,486Z" fill="#72096e" stroke="#72096e" stroke-width="1.51"/><path d="M1070,-111L1525,-104L1608,-105Z" fill="#be91c1" stroke="#be91c1" stroke-width="1.51"/><path d="M1605,177L1665,230L1695,149Z" fill="#78568e" stroke="#78568e" stroke-width="1.51"/><path d="M1665,230L1679,294L1695,149Z" fill="#734b86" stroke="#734b86" stroke-width="1.51"/><path d="M1688,-29L1591,32L1698,54Z" fill="#92729d" stroke="#92729d" stroke-width="1.51"/><path d="M1591,32L1660,85L1698,54Z" fill="#8c6d9b" stroke="#8c6d9b" stroke-width="1.51"/><path d="M1660,85L1695,149L1698,54Z" fill="#816694" stroke="#816694" stroke-width="1.51"/><path d="M1688,-79L1688,-29L1698,54Z" fill="#95759c" stroke="#95759c" stroke-width="1.51"/><path d="M1679,294L1592,373L1698,366Z" fill="#712b7a" stroke="#712b7a" stroke-width="1.51"/><path d="M1592,373L1618,413L1698,366Z" fill="#722076" stroke="#722076" stroke-width="1.51"/><path d="M1618,413L1679,433L1698,366Z" fill="#6e196f" stroke="#6e196f" stroke-width="1.51"/><path d="M1679,433L1692,470L1698,366Z" fill="#6a1069" stroke="#6a1069" stroke-width="1.51"/><path d="M1695,149L1679,294L1698,366Z" fill="#703e80" stroke="#703e80" stroke-width="1.51"/><path d="M1698,54L1695,149L1698,366Z" fill="#735389" stroke="#735389" stroke-width="1.51"/><path d="M1591,-30L1591,32L1688,-29Z" fill="#9c78a3" stroke="#9c78a3" stroke-width="1.51"/><path d="M1660,85L1605,177L1695,149Z" fill="#7f6194" stroke="#7f6194" stroke-width="1.51"/><path d="M1597,287L1592,373L1679,294Z" fill="#763482" stroke="#763482" stroke-width="1.51"/><path d="M1591,-30L1688,-29L1688,-79Z" fill="#9f7aa2" stroke="#9f7aa2" stroke-width="1.51"/><path d="M1679,433L1598,486L1692,470Z" fill="#660563" stroke="#660563" stroke-width="1.51"/><path d="M1591,32L1611,79L1660,85Z" fill="#8f6e9e" stroke="#8f6e9e" stroke-width="1.51"/><path d="M1608,-105L1591,-30L1688,-79Z" fill="#a57ea7" stroke="#a57ea7" stroke-width="1.51"/><path d="M1611,79L1605,177L1660,85Z" fill="#85689a" stroke="#85689a" stroke-width="1.51"/><path d="M1665,230L1607,245L1679,294Z" fill="#754485" stroke="#754485" stroke-width="1.51"/><path d="M1607,245L1597,287L1679,294Z" fill="#774086" stroke="#774086" stroke-width="1.51"/><path d="M1618,413L1598,486L1679,433Z" fill="#6f086b" stroke="#6f086b" stroke-width="1.51"/><path d="M1605,177L1607,245L1665,230Z" fill="#7a508e" stroke="#7a508e" stroke-width="1.51"/><path d="M759,-109L901,-103L965,-109Z" fill="#bfbfdd" stroke="#bfbfdd" stroke-width="1.51"/><path d="M1559,350L1592,373L1597,287Z" fill="#7b3084" stroke="#7b3084" stroke-width="1.51"/><path d="M1548,317L1559,350L1597,287Z" fill="#7d3788" stroke="#7d3788" stroke-width="1.51"/><path d="M1565,469L1488,471L1598,486Z" fill="#6e086a" stroke="#6e086a" stroke-width="1.51"/><path d="M1547,117L1542,155L1605,177Z" fill="#88639d" stroke="#88639d" stroke-width="1.51"/><path d="M1605,177L1564,238L1607,245Z" fill="#7d5191" stroke="#7d5191" stroke-width="1.51"/><path d="M1591,32L1567,52L1611,79Z" fill="#9471a2" stroke="#9471a2" stroke-width="1.51"/><path d="M1547,117L1605,177L1611,79Z" fill="#88689d" stroke="#88689d" stroke-width="1.51"/><path d="M1592,373L1560,408L1618,413Z" fill="#761d79" stroke="#761d79" stroke-width="1.51"/><path d="M1565,469L1598,486L1618,413Z" fill="#70096c" stroke="#70096c" stroke-width="1.51"/><path d="M1560,408L1565,469L1618,413Z" fill="#761273" stroke="#761273" stroke-width="1.51"/><path d="M1564,238L1597,287L1607,245Z" fill="#7d478c" stroke="#7d478c" stroke-width="1.51"/><path d="M1529,-41L1591,-30L1608,-105Z" fill="#aa81ac" stroke="#aa81ac" stroke-width="1.51"/><path d="M1525,-104L1529,-41L1608,-105Z" fill="#b084b0" stroke="#b084b0" stroke-width="1.51"/><path d="M1567,52L1547,117L1611,79Z" fill="#916ea2" stroke="#916ea2" stroke-width="1.51"/><path d="M1542,155L1564,238L1605,177Z" fill="#825a97" stroke="#825a97" stroke-width="1.51"/><path d="M1529,-41L1567,52L1591,32Z" fill="#9f78a8" stroke="#9f78a8" stroke-width="1.51"/><path d="M1529,-41L1591,32L1591,-30Z" fill="#a47baa" stroke="#a47baa" stroke-width="1.51"/><path d="M1564,238L1548,317L1597,287Z" fill="#7e418c" stroke="#7e418c" stroke-width="1.51"/><path d="M1559,350L1560,408L1592,373Z" fill="#7a2480" stroke="#7a2480" stroke-width="1.51"/><path d="M1345,490L1309,506L1435,486Z" fill="#721b75" stroke="#721b75" stroke-width="1.51"/><path d="M1498,235L1481,298L1548,317Z" fill="#854393" stroke="#854393" stroke-width="1.51"/><path d="M1559,350L1501,423L1560,408Z" fill="#7d217f" stroke="#7d217f" stroke-width="1.51"/><path d="M1542,155L1497,176L1564,238Z" fill="#875c9b" stroke="#875c9b" stroke-width="1.51"/><path d="M1497,176L1498,235L1564,238Z" fill="#86569a" stroke="#86569a" stroke-width="1.51"/><path d="M1498,235L1548,317L1564,238Z" fill="#834892" stroke="#834892" stroke-width="1.51"/><path d="M1560,408L1501,423L1565,469Z" fill="#7a1277" stroke="#7a1277" stroke-width="1.51"/><path d="M1501,423L1488,471L1565,469Z" fill="#790c74" stroke="#790c74" stroke-width="1.51"/><path d="M1529,-41L1460,24L1567,52Z" fill="#a57bae" stroke="#a57bae" stroke-width="1.51"/><path d="M1502,113L1547,117L1567,52Z" fill="#946fa6" stroke="#946fa6" stroke-width="1.51"/><path d="M1460,24L1502,113L1567,52Z" fill="#9d75ab" stroke="#9d75ab" stroke-width="1.51"/><path d="M1342,-103L1436,-87L1483,-102Z" fill="#bc8fbf" stroke="#bc8fbf" stroke-width="1.51"/><path d="M1465,362L1501,423L1559,350Z" fill="#812786" stroke="#812786" stroke-width="1.51"/><path d="M1548,317L1465,362L1559,350Z" fill="#81318a" stroke="#81318a" stroke-width="1.51"/><path d="M1525,-104L1504,-51L1529,-41Z" fill="#b385b4" stroke="#b385b4" stroke-width="1.51"/><path d="M1502,113L1542,155L1547,117Z" fill="#8f6aa3" stroke="#8f6aa3" stroke-width="1.51"/><path d="M1481,298L1465,362L1548,317Z" fill="#84388f" stroke="#84388f" stroke-width="1.51"/><path d="M1504,-51L1460,24L1529,-41Z" fill="#ae81b3" stroke="#ae81b3" stroke-width="1.51"/><path d="M1502,113L1497,176L1542,155Z" fill="#8f67a3" stroke="#8f67a3" stroke-width="1.51"/><path d="M1483,-102L1504,-51L1525,-104Z" fill="#b887b7" stroke="#b887b7" stroke-width="1.51"/><path d="M1438,290L1481,298L1498,235Z" fill="#894898" stroke="#894898" stroke-width="1.51"/><path d="M1497,176L1438,186L1498,235Z" fill="#8b5da1" stroke="#8b5da1" stroke-width="1.51"/><path d="M1465,362L1437,385L1501,423Z" fill="#842688" stroke="#842688" stroke-width="1.51"/><path d="M1460,24L1435,29L1502,113Z" fill="#a279b0" stroke="#a279b0" stroke-width="1.51"/><path d="M1435,29L1402,118L1502,113Z" fill="#9c76af" stroke="#9c76af" stroke-width="1.51"/><path d="M1438,186L1497,176L1502,113Z" fill="#9166a5" stroke="#9166a5" stroke-width="1.51"/><path d="M1402,118L1438,186L1502,113Z" fill="#946daa" stroke="#946daa" stroke-width="1.51"/><path d="M1408,-11L1460,24L1504,-51Z" fill="#af83b7" stroke="#af83b7" stroke-width="1.51"/><path d="M1436,-87L1408,-11L1504,-51Z" fill="#b688ba" stroke="#b688ba" stroke-width="1.51"/><path d="M1483,-102L1436,-87L1504,-51Z" fill="#b989b9" stroke="#b989b9" stroke-width="1.51"/><path d="M1224,487L1089,508L1309,506Z" fill="#732b7c" stroke="#732b7c" stroke-width="1.51"/><path d="M1422,429L1488,471L1501,423Z" fill="#81137d" stroke="#81137d" stroke-width="1.51"/><path d="M1437,385L1422,429L1501,423Z" fill="#832084" stroke="#832084" stroke-width="1.51"/><path d="M1404,221L1438,290L1498,235Z" fill="#8a519d" stroke="#8a519d" stroke-width="1.51"/><path d="M1438,186L1404,221L1498,235Z" fill="#8b5ba1" stroke="#8b5ba1" stroke-width="1.51"/><path d="M1438,290L1465,362L1481,298Z" fill="#883c93" stroke="#883c93" stroke-width="1.51"/><path d="M1422,429L1435,486L1488,471Z" fill="#7b1379" stroke="#7b1379" stroke-width="1.51"/><path d="M1408,-11L1435,29L1460,24Z" fill="#aa81b6" stroke="#aa81b6" stroke-width="1.51"/><path d="M1438,290L1437,385L1465,362Z" fill="#863591" stroke="#863591" stroke-width="1.51"/><path d="M1374,94L1402,118L1435,29Z" fill="#9e7ab3" stroke="#9e7ab3" stroke-width="1.51"/><path d="M1153,-101L1201,-91L1283,-99Z" fill="#be9ecd" stroke="#be9ecd" stroke-width="1.51"/><path d="M1422,429L1345,490L1435,486Z" fill="#7a197a" stroke="#7a197a" stroke-width="1.51"/><path d="M1341,58L1374,94L1435,29Z" fill="#a27eb6" stroke="#a27eb6" stroke-width="1.51"/><path d="M1343,-23L1408,-11L1436,-87Z" fill="#b58bbd" stroke="#b58bbd" stroke-width="1.51"/><path d="M1342,-103L1343,-23L1436,-87Z" fill="#b98fc1" stroke="#b98fc1" stroke-width="1.51"/><path d="M1360,157L1404,221L1438,186Z" fill="#8e66a8" stroke="#8e66a8" stroke-width="1.51"/><path d="M1402,118L1360,157L1438,186Z" fill="#926eac" stroke="#926eac" stroke-width="1.51"/><path d="M1404,221L1368,239L1438,290Z" fill="#8b54a0" stroke="#8b54a0" stroke-width="1.51"/><path d="M1368,239L1344,278L1438,290Z" fill="#8a519f" stroke="#8a519f" stroke-width="1.51"/><path d="M1344,381L1437,385L1438,290Z" fill="#873793" stroke="#873793" stroke-width="1.51"/><path d="M1344,278L1344,381L1438,290Z" fill="#894499" stroke="#894499" stroke-width="1.51"/><path d="M1344,381L1422,429L1437,385Z" fill="#852b8b" stroke="#852b8b" stroke-width="1.51"/><path d="M1408,-11L1341,58L1435,29Z" fill="#a882b8" stroke="#a882b8" stroke-width="1.51"/><path d="M1335,446L1345,490L1422,429Z" fill="#801f81" stroke="#801f81" stroke-width="1.51"/><path d="M1344,381L1335,446L1422,429Z" fill="#852889" stroke="#852889" stroke-width="1.51"/><path d="M1360,157L1368,239L1404,221Z" fill="#8c63a8" stroke="#8c63a8" stroke-width="1.51"/><path d="M1343,-23L1341,58L1408,-11Z" fill="#ac87bb" stroke="#ac87bb" stroke-width="1.51"/><path d="M1374,94L1360,157L1402,118Z" fill="#9676b2" stroke="#9676b2" stroke-width="1.51"/><path d="M1342,-103L1310,-29L1343,-23Z" fill="#b791c3" stroke="#b791c3" stroke-width="1.51"/><path d="M1344,278L1284,379L1344,381Z" fill="#88409a" stroke="#88409a" stroke-width="1.51"/><path d="M1292,174L1275,226L1368,239Z" fill="#8c65ac" stroke="#8c65ac" stroke-width="1.51"/><path d="M1360,157L1292,174L1368,239Z" fill="#8e6aac" stroke="#8e6aac" stroke-width="1.51"/><path d="M1309,116L1360,157L1374,94Z" fill="#9678b4" stroke="#9678b4" stroke-width="1.51"/><path d="M1341,58L1309,116L1374,94Z" fill="#9c7eb7" stroke="#9c7eb7" stroke-width="1.51"/><path d="M1279,278L1284,379L1344,278Z" fill="#894b9f" stroke="#894b9f" stroke-width="1.51"/><path d="M1275,226L1344,278L1368,239Z" fill="#8b5ba6" stroke="#8b5ba6" stroke-width="1.51"/><path d="M1276,30L1341,58L1343,-23Z" fill="#a988be" stroke="#a988be" stroke-width="1.51"/><path d="M1310,-29L1276,30L1343,-23Z" fill="#af8dc1" stroke="#af8dc1" stroke-width="1.51"/><path d="M1303,425L1335,446L1344,381Z" fill="#852c8c" stroke="#852c8c" stroke-width="1.51"/><path d="M1309,116L1292,174L1360,157Z" fill="#9275b3" stroke="#9275b3" stroke-width="1.51"/><path d="M1141,486L1089,508L1224,487Z" fill="#763281" stroke="#763281" stroke-width="1.51"/><path d="M1283,-99L1310,-29L1342,-103Z" fill="#bb95c6" stroke="#bb95c6" stroke-width="1.51"/><path d="M1275,226L1279,278L1344,278Z" fill="#8b59a6" stroke="#8b59a6" stroke-width="1.51"/><path d="M1284,379L1303,425L1344,381Z" fill="#873492" stroke="#873492" stroke-width="1.51"/><path d="M1335,446L1309,506L1345,490Z" fill="#78207b" stroke="#78207b" stroke-width="1.51"/><path d="M1276,30L1309,116L1341,58Z" fill="#a183bb" stroke="#a183bb" stroke-width="1.51"/><path d="M1303,425L1309,506L1335,446Z" fill="#7f2483" stroke="#7f2483" stroke-width="1.51"/><path d="M1279,278L1241,278L1284,379Z" fill="#8a4ea2" stroke="#8a4ea2" stroke-width="1.51"/><path d="M1241,278L1211,356L1284,379Z" fill="#8949a0" stroke="#8949a0" stroke-width="1.51"/><path d="M1230,419L1224,487L1303,425Z" fill="#852d8c" stroke="#852d8c" stroke-width="1.51"/><path d="M1276,30L1202,79L1309,116Z" fill="#9f85be" stroke="#9f85be" stroke-width="1.51"/><path d="M1207,155L1292,174L1309,116Z" fill="#9378b7" stroke="#9378b7" stroke-width="1.51"/><path d="M1303,425L1224,487L1309,506Z" fill="#7b2782" stroke="#7b2782" stroke-width="1.51"/><path d="M1283,-99L1233,-41L1310,-29Z" fill="#b896c7" stroke="#b896c7" stroke-width="1.51"/><path d="M1233,-41L1276,30L1310,-29Z" fill="#b191c4" stroke="#b191c4" stroke-width="1.51"/><path d="M1202,79L1207,155L1309,116Z" fill="#9782bc" stroke="#9782bc" stroke-width="1.51"/><path d="M1284,379L1230,419L1303,425Z" fill="#873492" stroke="#873492" stroke-width="1.51"/><path d="M1207,155L1275,226L1292,174Z" fill="#8e70b3" stroke="#8e70b3" stroke-width="1.51"/><path d="M1223,241L1241,278L1275,226Z" fill="#8c61ab" stroke="#8c61ab" stroke-width="1.51"/><path d="M1207,155L1223,241L1275,226Z" fill="#8d6db1" stroke="#8d6db1" stroke-width="1.51"/><path d="M1200,40L1202,79L1276,30Z" fill="#a48cc2" stroke="#a48cc2" stroke-width="1.51"/><path d="M1275,226L1241,278L1279,278Z" fill="#8b5ca9" stroke="#8b5ca9" stroke-width="1.51"/><path d="M1201,-91L1233,-41L1283,-99Z" fill="#ba9bcb" stroke="#ba9bcb" stroke-width="1.51"/><path d="M1211,356L1230,419L1284,379Z" fill="#873d99" stroke="#873d99" stroke-width="1.51"/><path d="M1233,-41L1200,40L1276,30Z" fill="#ac91c5" stroke="#ac91c5" stroke-width="1.51"/><path d="M1211,356L1169,380L1230,419Z" fill="#88419b" stroke="#88419b" stroke-width="1.51"/><path d="M1162,444L1224,487L1230,419Z" fill="#84328c" stroke="#84328c" stroke-width="1.51"/><path d="M1174,23L1200,40L1233,-41Z" fill="#ac93c6" stroke="#ac93c6" stroke-width="1.51"/><path d="M1223,241L1163,303L1241,278Z" fill="#8b5daa" stroke="#8b5daa" stroke-width="1.51"/><path d="M1163,303L1211,356L1241,278Z" fill="#8a54a5" stroke="#8a54a5" stroke-width="1.51"/><path d="M1207,155L1138,249L1223,241Z" fill="#8d6fb2" stroke="#8d6fb2" stroke-width="1.51"/><path d="M1161,-43L1174,23L1233,-41Z" fill="#b299c9" stroke="#b299c9" stroke-width="1.51"/><path d="M1201,-91L1161,-43L1233,-41Z" fill="#b89ccc" stroke="#b89ccc" stroke-width="1.51"/><path d="M1158,146L1138,249L1207,155Z" fill="#8f79b7" stroke="#8f79b7" stroke-width="1.51"/><path d="M1169,380L1162,444L1230,419Z" fill="#873c95" stroke="#873c95" stroke-width="1.51"/><path d="M1202,79L1158,146L1207,155Z" fill="#9684bd" stroke="#9684bd" stroke-width="1.51"/><path d="M1138,249L1163,303L1223,241Z" fill="#8b63ac" stroke="#8b63ac" stroke-width="1.51"/><path d="M1162,444L1141,486L1224,487Z" fill="#7d3286" stroke="#7d3286" stroke-width="1.51"/><path d="M1156,84L1158,146L1202,79Z" fill="#9a89c0" stroke="#9a89c0" stroke-width="1.51"/><path d="M1163,303L1169,380L1211,356Z" fill="#8a4da2" stroke="#8a4da2" stroke-width="1.51"/><path d="M1200,40L1156,84L1202,79Z" fill="#a18cc2" stroke="#a18cc2" stroke-width="1.51"/><path d="M1174,23L1156,84L1200,40Z" fill="#a490c4" stroke="#a490c4" stroke-width="1.51"/><path d="M1153,-101L1161,-43L1201,-91Z" fill="#bba1ce" stroke="#bba1ce" stroke-width="1.51"/><path d="M1113,160L1138,249L1158,146Z" fill="#8f7bb8" stroke="#8f7bb8" stroke-width="1.51"/><path d="M1113,160L1091,226L1138,249Z" fill="#8d76b6" stroke="#8d76b6" stroke-width="1.51"/><path d="M1099,305L1097,371L1163,303Z" fill="#8b58a7" stroke="#8b58a7" stroke-width="1.51"/><path d="M1163,303L1097,371L1169,380Z" fill="#8a4fa3" stroke="#8a4fa3" stroke-width="1.51"/><path d="M1097,371L1162,444L1169,380Z" fill="#88449a" stroke="#88449a" stroke-width="1.51"/><path d="M1088,30L1156,84L1174,23Z" fill="#a594c6" stroke="#a594c6" stroke-width="1.51"/><path d="M1161,-43L1115,-46L1174,23Z" fill="#b29ccb" stroke="#b29ccb" stroke-width="1.51"/><path d="M1115,-46L1088,30L1174,23Z" fill="#ae9bca" stroke="#ae9bca" stroke-width="1.51"/><path d="M884,490L788,500L977,510Z" fill="#774c8a" stroke="#774c8a" stroke-width="1.51"/><path d="M1156,84L1113,160L1158,146Z" fill="#9687bf" stroke="#9687bf" stroke-width="1.51"/><path d="M1153,-101L1115,-46L1161,-43Z" fill="#b9a2ce" stroke="#b9a2ce" stroke-width="1.51"/><path d="M1097,371L1075,418L1162,444Z" fill="#884499" stroke="#884499" stroke-width="1.51"/><path d="M1083,91L1113,160L1156,84Z" fill="#988dc2" stroke="#988dc2" stroke-width="1.51"/><path d="M1138,249L1099,305L1163,303Z" fill="#8c61ac" stroke="#8c61ac" stroke-width="1.51"/><path d="M1075,418L1141,486L1162,444Z" fill="#853b90" stroke="#853b90" stroke-width="1.51"/><path d="M1088,30L1083,91L1156,84Z" fill="#a193c5" stroke="#a193c5" stroke-width="1.51"/><path d="M1070,-111L1115,-46L1153,-101Z" fill="#bca6d1" stroke="#bca6d1" stroke-width="1.51"/><path d="M1091,226L1099,305L1138,249Z" fill="#8c6ab0" stroke="#8c6ab0" stroke-width="1.51"/><path d="M1075,418L1089,508L1141,486Z" fill="#7e3a8a" stroke="#7e3a8a" stroke-width="1.51"/><path d="M1025,493L977,510L1089,508Z" fill="#743d83" stroke="#743d83" stroke-width="1.51"/><path d="M1075,418L1037,444L1089,508Z" fill="#833f90" stroke="#833f90" stroke-width="1.51"/><path d="M1091,226L1028,247L1099,305Z" fill="#8d6db2" stroke="#8d6db2" stroke-width="1.51"/><path d="M1030,146L1091,226L1113,160Z" fill="#8f81bc" stroke="#8f81bc" stroke-width="1.51"/><path d="M1083,91L1030,146L1113,160Z" fill="#958dc2" stroke="#958dc2" stroke-width="1.51"/><path d="M1047,-44L1088,30L1115,-46Z" fill="#b2a2ce" stroke="#b2a2ce" stroke-width="1.51"/><path d="M1070,-111L1047,-44L1115,-46Z" fill="#baa8d2" stroke="#baa8d2" stroke-width="1.51"/><path d="M965,-109L1008,-93L1070,-111Z" fill="#bfb1d6" stroke="#bfb1d6" stroke-width="1.51"/><path d="M1039,44L1083,91L1088,30Z" fill="#a399c8" stroke="#a399c8" stroke-width="1.51"/><path d="M1037,444L1025,493L1089,508Z" fill="#7b3e89" stroke="#7b3e89" stroke-width="1.51"/><path d="M1030,146L1028,247L1091,226Z" fill="#8d7db9" stroke="#8d7db9" stroke-width="1.51"/><path d="M1015,366L1097,371L1099,305Z" fill="#8b57a7" stroke="#8b57a7" stroke-width="1.51"/><path d="M1006,315L1015,366L1099,305Z" fill="#8b5eaa" stroke="#8b5eaa" stroke-width="1.51"/><path d="M1028,247L1006,315L1099,305Z" fill="#8c68af" stroke="#8c68af" stroke-width="1.51"/><path d="M1047,-44L1039,44L1088,30Z" fill="#aca0cc" stroke="#aca0cc" stroke-width="1.51"/><path d="M1015,366L1075,418L1097,371Z" fill="#8a4fa1" stroke="#8a4fa1" stroke-width="1.51"/><path d="M1008,-93L1047,-44L1070,-111Z" fill="#bcadd4" stroke="#bcadd4" stroke-width="1.51"/><path d="M1039,44L1007,86L1083,91Z" fill="#9f98c8" stroke="#9f98c8" stroke-width="1.51"/><path d="M1007,86L1030,146L1083,91Z" fill="#9994c6" stroke="#9994c6" stroke-width="1.51"/><path d="M759,-109L816,-96L901,-103Z" fill="#bec3df" stroke="#bec3df" stroke-width="1.51"/><path d="M1015,366L1037,444L1075,418Z" fill="#894b9d" stroke="#894b9d" stroke-width="1.51"/><path d="M981,-21L1039,44L1047,-44Z" fill="#afa5cf" stroke="#afa5cf" stroke-width="1.51"/><path d="M972,173L1028,247L1030,146Z" fill="#8e85be" stroke="#8e85be" stroke-width="1.51"/><path d="M1015,366L972,446L1037,444Z" fill="#8a4d9c" stroke="#8a4d9c" stroke-width="1.51"/><path d="M981,-21L964,20L1039,44Z" fill="#aba5cf" stroke="#aba5cf" stroke-width="1.51"/><path d="M1008,-93L981,-21L1047,-44Z" fill="#b8acd3" stroke="#b8acd3" stroke-width="1.51"/><path d="M972,173L946,213L1028,247Z" fill="#8c82bc" stroke="#8c82bc" stroke-width="1.51"/><path d="M963,282L1006,315L1028,247Z" fill="#8c6eb2" stroke="#8c6eb2" stroke-width="1.51"/><path d="M972,446L1025,493L1037,444Z" fill="#834491" stroke="#834491" stroke-width="1.51"/><path d="M964,20L1007,86L1039,44Z" fill="#a49fcb" stroke="#a49fcb" stroke-width="1.51"/><path d="M959,361L972,446L1015,366Z" fill="#8a55a3" stroke="#8a55a3" stroke-width="1.51"/><path d="M1007,86L972,173L1030,146Z" fill="#9492c4" stroke="#9492c4" stroke-width="1.51"/><path d="M972,446L977,510L1025,493Z" fill="#7b438b" stroke="#7b438b" stroke-width="1.51"/><path d="M946,213L963,282L1028,247Z" fill="#8d79b7" stroke="#8d79b7" stroke-width="1.51"/><path d="M956,82L972,173L1007,86Z" fill="#9898c8" stroke="#9898c8" stroke-width="1.51"/><path d="M964,20L956,82L1007,86Z" fill="#a2a0cc" stroke="#a2a0cc" stroke-width="1.51"/><path d="M965,-109L981,-21L1008,-93Z" fill="#bbb1d6" stroke="#bbb1d6" stroke-width="1.51"/><path d="M1006,315L959,361L1015,366Z" fill="#8b5eaa" stroke="#8b5eaa" stroke-width="1.51"/><path d="M963,282L959,361L1006,315Z" fill="#8c67af" stroke="#8c67af" stroke-width="1.51"/><path d="M846,486L788,500L884,490Z" fill="#7b518e" stroke="#7b518e" stroke-width="1.51"/><path d="M902,301L959,361L963,282Z" fill="#8c6bb1" stroke="#8c6bb1" stroke-width="1.51"/><path d="M956,82L908,121L972,173Z" fill="#969ac8" stroke="#969ac8" stroke-width="1.51"/><path d="M959,361L892,417L972,446Z" fill="#8b56a1" stroke="#8b56a1" stroke-width="1.51"/><path d="M972,446L884,490L977,510Z" fill="#7d488d" stroke="#7d488d" stroke-width="1.51"/><path d="M900,-8L964,20L981,-21Z" fill="#aeacd2" stroke="#aeacd2" stroke-width="1.51"/><path d="M965,-109L901,-103L981,-21Z" fill="#bcb5d8" stroke="#bcb5d8" stroke-width="1.51"/><path d="M901,-103L900,-8L981,-21Z" fill="#b7b4d7" stroke="#b7b4d7" stroke-width="1.51"/><path d="M946,213L887,237L963,282Z" fill="#8d7eba" stroke="#8d7eba" stroke-width="1.51"/><path d="M891,25L956,82L964,20Z" fill="#a5a6cf" stroke="#a5a6cf" stroke-width="1.51"/><path d="M891,187L946,213L972,173Z" fill="#8e8bc0" stroke="#8e8bc0" stroke-width="1.51"/><path d="M908,121L891,187L972,173Z" fill="#9193c5" stroke="#9193c5" stroke-width="1.51"/><path d="M892,417L884,490L972,446Z" fill="#884f98" stroke="#884f98" stroke-width="1.51"/><path d="M879,375L892,417L959,361Z" fill="#8c5ea8" stroke="#8c5ea8" stroke-width="1.51"/><path d="M887,237L902,301L963,282Z" fill="#8d78b7" stroke="#8d78b7" stroke-width="1.51"/><path d="M900,-8L891,25L964,20Z" fill="#abadd2" stroke="#abadd2" stroke-width="1.51"/><path d="M902,301L879,375L959,361Z" fill="#8c66ae" stroke="#8c66ae" stroke-width="1.51"/><path d="M891,25L908,121L956,82Z" fill="#9fa4cd" stroke="#9fa4cd" stroke-width="1.51"/><path d="M891,187L887,237L946,213Z" fill="#8d89bf" stroke="#8d89bf" stroke-width="1.51"/><path d="M821,54L824,85L891,25Z" fill="#a2aed2" stroke="#a2aed2" stroke-width="1.51"/><path d="M846,486L884,490L892,417Z" fill="#835296" stroke="#835296" stroke-width="1.51"/><path d="M846,-34L900,-8L901,-103Z" fill="#b7b9d9" stroke="#b7b9d9" stroke-width="1.51"/><path d="M887,237L834,301L902,301Z" fill="#8d7ab8" stroke="#8d7ab8" stroke-width="1.51"/><path d="M834,301L879,375L902,301Z" fill="#8c70b2" stroke="#8c70b2" stroke-width="1.51"/><path d="M891,25L824,85L908,121Z" fill="#9ea8cf" stroke="#9ea8cf" stroke-width="1.51"/><path d="M824,85L849,153L908,121Z" fill="#96a3cd" stroke="#96a3cd" stroke-width="1.51"/><path d="M849,153L891,187L908,121Z" fill="#9299c7" stroke="#9299c7" stroke-width="1.51"/><path d="M824,254L834,301L887,237Z" fill="#8d81bb" stroke="#8d81bb" stroke-width="1.51"/><path d="M834,423L846,486L892,417Z" fill="#8b579e" stroke="#8b579e" stroke-width="1.51"/><path d="M816,-96L846,-34L901,-103Z" fill="#bbbedc" stroke="#bbbedc" stroke-width="1.51"/><path d="M846,-34L891,25L900,-8Z" fill="#afb3d6" stroke="#afb3d6" stroke-width="1.51"/><path d="M846,-34L821,54L891,25Z" fill="#abb2d5" stroke="#abb2d5" stroke-width="1.51"/><path d="M824,254L887,237L891,187Z" fill="#8d88bf" stroke="#8d88bf" stroke-width="1.51"/><path d="M849,153L824,254L891,187Z" fill="#8d92c3" stroke="#8d92c3" stroke-width="1.51"/><path d="M879,375L834,423L892,417Z" fill="#8c5ea6" stroke="#8c5ea6" stroke-width="1.51"/><path d="M834,301L814,377L879,375Z" fill="#8c6cb1" stroke="#8c6cb1" stroke-width="1.51"/><path d="M814,377L834,423L879,375Z" fill="#8c63a9" stroke="#8c63a9" stroke-width="1.51"/><path d="M788,339L814,377L834,301Z" fill="#8d72b4" stroke="#8d72b4" stroke-width="1.51"/><path d="M779,423L788,500L834,423Z" fill="#8a5c9f" stroke="#8a5c9f" stroke-width="1.51"/><path d="M767,-30L821,54L846,-34Z" fill="#aeb9d9" stroke="#aeb9d9" stroke-width="1.51"/><path d="M816,-96L767,-30L846,-34Z" fill="#b8c0dd" stroke="#b8c0dd" stroke-width="1.51"/><path d="M834,423L788,500L846,486Z" fill="#825697" stroke="#825697" stroke-width="1.51"/><path d="M824,85L750,113L849,153Z" fill="#96a8cf" stroke="#96a8cf" stroke-width="1.51"/><path d="M750,113L752,175L849,153Z" fill="#93a4cd" stroke="#93a4cd" stroke-width="1.51"/><path d="M761,231L824,254L849,153Z" fill="#8c92c4" stroke="#8c92c4" stroke-width="1.51"/><path d="M752,175L761,231L849,153Z" fill="#8e9ac8" stroke="#8e9ac8" stroke-width="1.51"/><path d="M767,-30L755,44L821,54Z" fill="#aab8d8" stroke="#aab8d8" stroke-width="1.51"/><path d="M824,254L764,295L834,301Z" fill="#8d80ba" stroke="#8d80ba" stroke-width="1.51"/><path d="M764,295L788,339L834,301Z" fill="#8d7ab7" stroke="#8d7ab7" stroke-width="1.51"/><path d="M814,377L779,423L834,423Z" fill="#8c63a7" stroke="#8c63a7" stroke-width="1.51"/><path d="M517,486L328,510L583,502Z" fill="#896b9a" stroke="#896b9a" stroke-width="1.51"/><path d="M491,-112L652,-84L713,-107Z" fill="#c5d5e8" stroke="#c5d5e8" stroke-width="1.51"/><path d="M821,54L755,44L824,85Z" fill="#a1b1d4" stroke="#a1b1d4" stroke-width="1.51"/><path d="M755,44L750,113L824,85Z" fill="#9eb0d4" stroke="#9eb0d4" stroke-width="1.51"/><path d="M761,231L764,295L824,254Z" fill="#8e88be" stroke="#8e88be" stroke-width="1.51"/><path d="M759,-109L767,-30L816,-96Z" fill="#bcc5e0" stroke="#bcc5e0" stroke-width="1.51"/><path d="M788,339L779,423L814,377Z" fill="#8d6aae" stroke="#8d6aae" stroke-width="1.51"/><path d="M622,491L583,502L692,498Z" fill="#806296" stroke="#806296" stroke-width="1.51"/><path d="M720,87L750,113L755,44Z" fill="#9fb3d5" stroke="#9fb3d5" stroke-width="1.51"/><path d="M720,24L755,44L767,-30Z" fill="#adbddb" stroke="#adbddb" stroke-width="1.51"/><path d="M698,372L712,422L779,423Z" fill="#906aab" stroke="#906aab" stroke-width="1.51"/><path d="M764,295L722,314L788,339Z" fill="#8f7cb9" stroke="#8f7cb9" stroke-width="1.51"/><path d="M698,372L779,423L788,339Z" fill="#8f6eb0" stroke="#8f6eb0" stroke-width="1.51"/><path d="M722,314L698,372L788,339Z" fill="#8f78b7" stroke="#8f78b7" stroke-width="1.51"/><path d="M779,423L712,422L788,500Z" fill="#8c5fa1" stroke="#8c5fa1" stroke-width="1.51"/><path d="M712,422L692,498L788,500Z" fill="#855d9a" stroke="#855d9a" stroke-width="1.51"/><path d="M256,494L64,493L328,510Z" fill="#9a77a1" stroke="#9a77a1" stroke-width="1.51"/><path d="M759,-109L713,-107L767,-30Z" fill="#bec9e1" stroke="#bec9e1" stroke-width="1.51"/><path d="M752,175L712,212L761,231Z" fill="#8f99c7" stroke="#8f99c7" stroke-width="1.51"/><path d="M712,212L722,314L761,231Z" fill="#908ec2" stroke="#908ec2" stroke-width="1.51"/><path d="M761,231L722,314L764,295Z" fill="#8f85bd" stroke="#8f85bd" stroke-width="1.51"/><path d="M702,-7L720,24L767,-30Z" fill="#b1c1dc" stroke="#b1c1dc" stroke-width="1.51"/><path d="M713,-107L702,-7L767,-30Z" fill="#bac7e0" stroke="#bac7e0" stroke-width="1.51"/><path d="M750,113L694,165L752,175Z" fill="#94a7cf" stroke="#94a7cf" stroke-width="1.51"/><path d="M720,24L720,87L755,44Z" fill="#a6b8d8" stroke="#a6b8d8" stroke-width="1.51"/><path d="M712,212L653,292L722,314Z" fill="#918cc1" stroke="#918cc1" stroke-width="1.51"/><path d="M720,87L694,165L750,113Z" fill="#98afd3" stroke="#98afd3" stroke-width="1.51"/><path d="M694,165L712,212L752,175Z" fill="#92a0cc" stroke="#92a0cc" stroke-width="1.51"/><path d="M491,-112L562,-72L652,-84Z" fill="#c6d8e9" stroke="#c6d8e9" stroke-width="1.51"/><path d="M643,235L653,292L712,212Z" fill="#9295c5" stroke="#9295c5" stroke-width="1.51"/><path d="M652,-84L702,-7L713,-107Z" fill="#becbe3" stroke="#becbe3" stroke-width="1.51"/><path d="M617,110L694,165L720,87Z" fill="#9ab2d5" stroke="#9ab2d5" stroke-width="1.51"/><path d="M720,24L626,48L720,87Z" fill="#a7bbda" stroke="#a7bbda" stroke-width="1.51"/><path d="M640,342L698,372L722,314Z" fill="#927bb9" stroke="#927bb9" stroke-width="1.51"/><path d="M653,292L640,342L722,314Z" fill="#9283bc" stroke="#9283bc" stroke-width="1.51"/><path d="M702,-7L626,48L720,24Z" fill="#adc0dc" stroke="#adc0dc" stroke-width="1.51"/><path d="M626,48L617,110L720,87Z" fill="#a3bad9" stroke="#a3bad9" stroke-width="1.51"/><path d="M618,413L622,491L692,498Z" fill="#8a669f" stroke="#8a669f" stroke-width="1.51"/><path d="M652,-84L633,-11L702,-7Z" fill="#bacbe2" stroke="#bacbe2" stroke-width="1.51"/><path d="M698,372L618,413L712,422Z" fill="#9270af" stroke="#9270af" stroke-width="1.51"/><path d="M618,413L692,498L712,422Z" fill="#9167a6" stroke="#9167a6" stroke-width="1.51"/><path d="M694,165L643,235L712,212Z" fill="#919eca" stroke="#919eca" stroke-width="1.51"/><path d="M633,-11L626,48L702,-7Z" fill="#b1c4df" stroke="#b1c4df" stroke-width="1.51"/><path d="M626,186L643,235L694,165Z" fill="#93a3cd" stroke="#93a3cd" stroke-width="1.51"/><path d="M617,110L626,186L694,165Z" fill="#97aed2" stroke="#97aed2" stroke-width="1.51"/><path d="M640,342L618,413L698,372Z" fill="#9377b5" stroke="#9377b5" stroke-width="1.51"/><path d="M456,477L328,510L517,486Z" fill="#8e6e9e" stroke="#8e6e9e" stroke-width="1.51"/><path d="M592,-41L633,-11L652,-84Z" fill="#bdcfe4" stroke="#bdcfe4" stroke-width="1.51"/><path d="M643,235L582,295L653,292Z" fill="#9491c4" stroke="#9491c4" stroke-width="1.51"/><path d="M582,295L640,342L653,292Z" fill="#9488bf" stroke="#9488bf" stroke-width="1.51"/><path d="M617,110L575,157L626,186Z" fill="#99b1d4" stroke="#99b1d4" stroke-width="1.51"/><path d="M562,-72L592,-41L652,-84Z" fill="#c1d3e6" stroke="#c1d3e6" stroke-width="1.51"/><path d="M310,-115L372,-98L491,-112Z" fill="#d5e3ef" stroke="#d5e3ef" stroke-width="1.51"/><path d="M555,342L618,413L640,342Z" fill="#967db9" stroke="#967db9" stroke-width="1.51"/><path d="M626,186L570,213L643,235Z" fill="#94a2cc" stroke="#94a2cc" stroke-width="1.51"/><path d="M570,213L582,295L643,235Z" fill="#959ac9" stroke="#959ac9" stroke-width="1.51"/><path d="M618,413L554,446L622,491Z" fill="#936ca7" stroke="#936ca7" stroke-width="1.51"/><path d="M575,86L617,110L626,48Z" fill="#a4bedc" stroke="#a4bedc" stroke-width="1.51"/><path d="M560,32L626,48L633,-11Z" fill="#b0c6e0" stroke="#b0c6e0" stroke-width="1.51"/><path d="M582,295L555,342L640,342Z" fill="#9687bf" stroke="#9687bf" stroke-width="1.51"/><path d="M554,446L583,502L622,491Z" fill="#89699e" stroke="#89699e" stroke-width="1.51"/><path d="M592,-41L560,32L633,-11Z" fill="#b7cce3" stroke="#b7cce3" stroke-width="1.51"/><path d="M560,32L575,86L626,48Z" fill="#abc4de" stroke="#abc4de" stroke-width="1.51"/><path d="M575,157L570,213L626,186Z" fill="#96abd1" stroke="#96abd1" stroke-width="1.51"/><path d="M575,86L575,157L617,110Z" fill="#9ebada" stroke="#9ebada" stroke-width="1.51"/><path d="M555,342L554,446L618,413Z" fill="#9678b3" stroke="#9678b3" stroke-width="1.51"/><path d="M528,356L554,446L555,342Z" fill="#997eb8" stroke="#997eb8" stroke-width="1.51"/><path d="M575,86L520,109L575,157Z" fill="#a0bdda" stroke="#a0bdda" stroke-width="1.51"/><path d="M570,213L501,233L582,295Z" fill="#989dca" stroke="#989dca" stroke-width="1.51"/><path d="M562,-72L503,-18L592,-41Z" fill="#c1d5e7" stroke="#c1d5e7" stroke-width="1.51"/><path d="M503,-18L560,32L592,-41Z" fill="#bacfe5" stroke="#bacfe5" stroke-width="1.51"/><path d="M528,356L516,438L554,446Z" fill="#9977b1" stroke="#9977b1" stroke-width="1.51"/><path d="M509,162L570,213L575,157Z" fill="#99afd3" stroke="#99afd3" stroke-width="1.51"/><path d="M501,233L486,301L582,295Z" fill="#9a97c7" stroke="#9a97c7" stroke-width="1.51"/><path d="M554,446L517,486L583,502Z" fill="#8c6b9f" stroke="#8c6b9f" stroke-width="1.51"/><path d="M486,301L555,342L582,295Z" fill="#998dc2" stroke="#998dc2" stroke-width="1.51"/><path d="M560,32L520,109L575,86Z" fill="#a9c3de" stroke="#a9c3de" stroke-width="1.51"/><path d="M520,109L509,162L575,157Z" fill="#9fb8d8" stroke="#9fb8d8" stroke-width="1.51"/><path d="M487,38L520,109L560,32Z" fill="#aec7e0" stroke="#aec7e0" stroke-width="1.51"/><path d="M509,162L501,233L570,213Z" fill="#99abd0" stroke="#99abd0" stroke-width="1.51"/><path d="M486,301L528,356L555,342Z" fill="#9a89c0" stroke="#9a89c0" stroke-width="1.51"/><path d="M503,-18L487,38L560,32Z" fill="#b7cde3" stroke="#b7cde3" stroke-width="1.51"/><path d="M491,-112L503,-18L562,-72Z" fill="#c7d9ea" stroke="#c7d9ea" stroke-width="1.51"/><path d="M516,438L517,486L554,446Z" fill="#946fa7" stroke="#946fa7" stroke-width="1.51"/><path d="M491,-112L436,-81L503,-18Z" fill="#cadbeb" stroke="#cadbeb" stroke-width="1.51"/><path d="M487,38L458,98L520,109Z" fill="#acc5df" stroke="#acc5df" stroke-width="1.51"/><path d="M465,377L516,438L528,356Z" fill="#9b7db8" stroke="#9b7db8" stroke-width="1.51"/><path d="M486,301L465,377L528,356Z" fill="#9c88bf" stroke="#9c88bf" stroke-width="1.51"/><path d="M440,224L501,233L509,162Z" fill="#9cacd1" stroke="#9cacd1" stroke-width="1.51"/><path d="M516,438L456,477L517,486Z" fill="#936fa5" stroke="#936fa5" stroke-width="1.51"/><path d="M458,98L509,162L520,109Z" fill="#a3bfdc" stroke="#a3bfdc" stroke-width="1.51"/><path d="M465,377L432,426L516,438Z" fill="#9d7ab3" stroke="#9d7ab3" stroke-width="1.51"/><path d="M432,426L456,477L516,438Z" fill="#9c73ac" stroke="#9c73ac" stroke-width="1.51"/><path d="M372,-98L436,-81L491,-112Z" fill="#d1e0ed" stroke="#d1e0ed" stroke-width="1.51"/><path d="M450,294L486,301L501,233Z" fill="#9d99c8" stroke="#9d99c8" stroke-width="1.51"/><path d="M436,-81L425,-23L503,-18Z" fill="#c7d9e9" stroke="#c7d9e9" stroke-width="1.51"/><path d="M453,15L487,38L503,-18Z" fill="#bbd0e5" stroke="#bbd0e5" stroke-width="1.51"/><path d="M458,98L422,170L509,162Z" fill="#a4bbda" stroke="#a4bbda" stroke-width="1.51"/><path d="M422,170L440,224L509,162Z" fill="#9fb2d5" stroke="#9fb2d5" stroke-width="1.51"/><path d="M360,478L328,510L456,477Z" fill="#9371a0" stroke="#9371a0" stroke-width="1.51"/><path d="M450,294L465,377L486,301Z" fill="#9e8fc3" stroke="#9e8fc3" stroke-width="1.51"/><path d="M440,224L450,294L501,233Z" fill="#9ea1cc" stroke="#9ea1cc" stroke-width="1.51"/><path d="M425,-23L453,15L503,-18Z" fill="#c0d4e7" stroke="#c0d4e7" stroke-width="1.51"/><path d="M453,15L458,98L487,38Z" fill="#b4cbe2" stroke="#b4cbe2" stroke-width="1.51"/><path d="M399,86L422,170L458,98Z" fill="#a9c3de" stroke="#a9c3de" stroke-width="1.51"/><path d="M453,15L398,54L458,98Z" fill="#b5cce2" stroke="#b5cce2" stroke-width="1.51"/><path d="M398,54L399,86L458,98Z" fill="#b1c9e1" stroke="#b1c9e1" stroke-width="1.51"/><path d="M450,294L379,353L465,377Z" fill="#a18cc1" stroke="#a18cc1" stroke-width="1.51"/><path d="M379,353L432,426L465,377Z" fill="#a082bb" stroke="#a082bb" stroke-width="1.51"/><path d="M440,224L372,249L450,294Z" fill="#a1a2cd" stroke="#a1a2cd" stroke-width="1.51"/><path d="M372,249L376,288L450,294Z" fill="#a39cca" stroke="#a39cca" stroke-width="1.51"/><path d="M432,426L395,442L456,477Z" fill="#9e75ac" stroke="#9e75ac" stroke-width="1.51"/><path d="M376,288L379,353L450,294Z" fill="#a394c6" stroke="#a394c6" stroke-width="1.51"/><path d="M395,442L360,478L456,477Z" fill="#9a74a7" stroke="#9a74a7" stroke-width="1.51"/><path d="M425,-23L398,54L453,15Z" fill="#bed2e6" stroke="#bed2e6" stroke-width="1.51"/><path d="M399,86L371,162L422,170Z" fill="#a9c0dc" stroke="#a9c0dc" stroke-width="1.51"/><path d="M379,-23L398,54L425,-23Z" fill="#c2d5e8" stroke="#c2d5e8" stroke-width="1.51"/><path d="M379,353L395,442L432,426Z" fill="#a27fb6" stroke="#a27fb6" stroke-width="1.51"/><path d="M379,-23L425,-23L436,-81Z" fill="#cadceb" stroke="#cadceb" stroke-width="1.51"/><path d="M372,-98L379,-23L436,-81Z" fill="#d0dfed" stroke="#d0dfed" stroke-width="1.51"/><path d="M422,170L372,249L440,224Z" fill="#a1add2" stroke="#a1add2" stroke-width="1.51"/><path d="M371,162L372,249L422,170Z" fill="#a3b4d6" stroke="#a3b4d6" stroke-width="1.51"/><path d="M371,162L330,213L372,249Z" fill="#a5b2d4" stroke="#a5b2d4" stroke-width="1.51"/><path d="M313,-9L329,58L379,-23Z" fill="#c6d8e8" stroke="#c6d8e8" stroke-width="1.51"/><path d="M379,353L330,381L395,442Z" fill="#a583bb" stroke="#a583bb" stroke-width="1.51"/><path d="M379,-23L329,58L398,54Z" fill="#bfd3e6" stroke="#bfd3e6" stroke-width="1.51"/><path d="M323,110L371,162L399,86Z" fill="#adc6e0" stroke="#adc6e0" stroke-width="1.51"/><path d="M398,54L329,58L399,86Z" fill="#b8cde3" stroke="#b8cde3" stroke-width="1.51"/><path d="M329,58L323,110L399,86Z" fill="#b5cce2" stroke="#b5cce2" stroke-width="1.51"/><path d="M323,110L330,151L371,162Z" fill="#adc2de" stroke="#adc2de" stroke-width="1.51"/><path d="M330,381L360,478L395,442Z" fill="#a47bb2" stroke="#a47bb2" stroke-width="1.51"/><path d="M188,474L64,493L256,494Z" fill="#a27ba7" stroke="#a27ba7" stroke-width="1.51"/><path d="M330,381L292,420L360,478Z" fill="#a77eb4" stroke="#a77eb4" stroke-width="1.51"/><path d="M310,-115L313,-9L372,-98Z" fill="#d5e3ef" stroke="#d5e3ef" stroke-width="1.51"/><path d="M372,-98L313,-9L379,-23Z" fill="#cfdfec" stroke="#cfdfec" stroke-width="1.51"/><path d="M376,288L292,319L379,353Z" fill="#a695c6" stroke="#a695c6" stroke-width="1.51"/><path d="M292,319L330,381L379,353Z" fill="#a88ec3" stroke="#a88ec3" stroke-width="1.51"/><path d="M330,151L330,213L371,162Z" fill="#a9bad9" stroke="#a9bad9" stroke-width="1.51"/><path d="M372,249L292,319L376,288Z" fill="#a79dcb" stroke="#a79dcb" stroke-width="1.51"/><path d="M330,213L292,319L372,249Z" fill="#a8a4ce" stroke="#a8a4ce" stroke-width="1.51"/><path d="M114,476L64,493L188,474Z" fill="#a77faa" stroke="#a77faa" stroke-width="1.51"/><path d="M292,420L328,510L360,478Z" fill="#9d76a8" stroke="#9d76a8" stroke-width="1.51"/><path d="M-29,-85L72,-80L163,-106Z" fill="#e9f2f8" stroke="#e9f2f8" stroke-width="1.51"/><path d="M310,-115L252,-74L313,-9Z" fill="#d7e4ef" stroke="#d7e4ef" stroke-width="1.51"/><path d="M252,-74L263,-22L313,-9Z" fill="#d3e2ee" stroke="#d3e2ee" stroke-width="1.51"/><path d="M292,420L256,494L328,510Z" fill="#9e77a7" stroke="#9e77a7" stroke-width="1.51"/><path d="M313,-9L236,34L329,58Z" fill="#c5d7e9" stroke="#c5d7e9" stroke-width="1.51"/><path d="M244,92L323,110L329,58Z" fill="#b9cee4" stroke="#b9cee4" stroke-width="1.51"/><path d="M267,409L292,420L330,381Z" fill="#a984ba" stroke="#a984ba" stroke-width="1.51"/><path d="M292,319L247,352L330,381Z" fill="#aa90c4" stroke="#aa90c4" stroke-width="1.51"/><path d="M247,352L267,409L330,381Z" fill="#ab8abf" stroke="#ab8abf" stroke-width="1.51"/><path d="M323,110L245,152L330,151Z" fill="#b0c5df" stroke="#b0c5df" stroke-width="1.51"/><path d="M240,236L292,319L330,213Z" fill="#aaa8d1" stroke="#aaa8d1" stroke-width="1.51"/><path d="M330,151L245,152L330,213Z" fill="#acbddb" stroke="#acbddb" stroke-width="1.51"/><path d="M245,152L240,236L330,213Z" fill="#abb8d8" stroke="#abb8d8" stroke-width="1.51"/><path d="M236,34L244,92L329,58Z" fill="#c0d3e6" stroke="#c0d3e6" stroke-width="1.51"/><path d="M163,-106L252,-74L310,-115Z" fill="#dfeaf3" stroke="#dfeaf3" stroke-width="1.51"/><path d="M263,-22L236,34L313,-9Z" fill="#ccdcec" stroke="#ccdcec" stroke-width="1.51"/><path d="M244,92L245,152L323,110Z" fill="#b4cbe3" stroke="#b4cbe3" stroke-width="1.51"/><path d="M240,236L233,319L292,319Z" fill="#ada1cd" stroke="#ada1cd" stroke-width="1.51"/><path d="M267,409L256,494L292,420Z" fill="#aa7eb3" stroke="#aa7eb3" stroke-width="1.51"/><path d="M233,319L247,352L292,319Z" fill="#ad97c8" stroke="#ad97c8" stroke-width="1.51"/><path d="M247,352L186,410L267,409Z" fill="#ae8abf" stroke="#ae8abf" stroke-width="1.51"/><path d="M188,474L256,494L267,409Z" fill="#a77dae" stroke="#a77dae" stroke-width="1.51"/><path d="M186,410L188,474L267,409Z" fill="#ae83b7" stroke="#ae83b7" stroke-width="1.51"/><path d="M161,214L240,236L245,152Z" fill="#afbbda" stroke="#afbbda" stroke-width="1.51"/><path d="M193,21L236,34L263,-22Z" fill="#cdddec" stroke="#cdddec" stroke-width="1.51"/><path d="M252,-74L159,-34L263,-22Z" fill="#d8e6f0" stroke="#d8e6f0" stroke-width="1.51"/><path d="M159,-34L193,21L263,-22Z" fill="#d3e2ee" stroke="#d3e2ee" stroke-width="1.51"/><path d="M169,305L233,319L240,236Z" fill="#b0a3cf" stroke="#b0a3cf" stroke-width="1.51"/><path d="M189,348L186,410L247,352Z" fill="#b090c4" stroke="#b090c4" stroke-width="1.51"/><path d="M164,149L161,214L245,152Z" fill="#b4c3de" stroke="#b4c3de" stroke-width="1.51"/><path d="M244,92L169,100L245,152Z" fill="#b9cfe5" stroke="#b9cfe5" stroke-width="1.51"/><path d="M163,-106L159,-34L252,-74Z" fill="#dfeaf3" stroke="#dfeaf3" stroke-width="1.51"/><path d="M193,21L169,100L236,34Z" fill="#c7d9e9" stroke="#c7d9e9" stroke-width="1.51"/><path d="M236,34L169,100L244,92Z" fill="#c1d4e7" stroke="#c1d4e7" stroke-width="1.51"/><path d="M169,100L164,149L245,152Z" fill="#b8cce3" stroke="#b8cce3" stroke-width="1.51"/><path d="M233,319L189,348L247,352Z" fill="#af96c8" stroke="#af96c8" stroke-width="1.51"/><path d="M161,214L169,305L240,236Z" fill="#b1aed4" stroke="#b1aed4" stroke-width="1.51"/><path d="M169,305L189,348L233,319Z" fill="#b19cca" stroke="#b19cca" stroke-width="1.51"/><path d="M72,-80L131,-89L163,-106Z" fill="#e7f0f6" stroke="#e7f0f6" stroke-width="1.51"/><path d="M131,-89L159,-34L163,-106Z" fill="#e2edf5" stroke="#e2edf5" stroke-width="1.51"/><path d="M161,214L114,252L169,305Z" fill="#b5afd4" stroke="#b5afd4" stroke-width="1.51"/><path d="M186,410L131,424L188,474Z" fill="#b284b7" stroke="#b284b7" stroke-width="1.51"/><path d="M130,356L186,410L189,348Z" fill="#b392c5" stroke="#b392c5" stroke-width="1.51"/><path d="M159,-34L103,-19L193,21Z" fill="#d7e5f0" stroke="#d7e5f0" stroke-width="1.51"/><path d="M103,-19L101,54L193,21Z" fill="#d3e1ee" stroke="#d3e1ee" stroke-width="1.51"/><path d="M101,54L169,100L193,21Z" fill="#c9daea" stroke="#c9daea" stroke-width="1.51"/><path d="M134,160L161,214L164,149Z" fill="#b7c4df" stroke="#b7c4df" stroke-width="1.51"/><path d="M130,356L131,424L186,410Z" fill="#b48ec0" stroke="#b48ec0" stroke-width="1.51"/><path d="M131,424L114,476L188,474Z" fill="#ae81b1" stroke="#ae81b1" stroke-width="1.51"/><path d="M169,305L130,356L189,348Z" fill="#b39aca" stroke="#b39aca" stroke-width="1.51"/><path d="M128,107L134,160L164,149Z" fill="#bbcee3" stroke="#bbcee3" stroke-width="1.51"/><path d="M101,54L128,107L169,100Z" fill="#c5d7e9" stroke="#c5d7e9" stroke-width="1.51"/><path d="M128,107L164,149L169,100Z" fill="#bdd2e6" stroke="#bdd2e6" stroke-width="1.51"/><path d="M97,274L130,356L169,305Z" fill="#b6a2ce" stroke="#b6a2ce" stroke-width="1.51"/><path d="M114,252L97,274L169,305Z" fill="#b6abd2" stroke="#b6abd2" stroke-width="1.51"/><path d="M131,-89L103,-19L159,-34Z" fill="#e0ecf4" stroke="#e0ecf4" stroke-width="1.51"/><path d="M134,160L114,252L161,214Z" fill="#b5bddb" stroke="#b5bddb" stroke-width="1.51"/><path d="M74,168L46,214L114,252Z" fill="#b8bedc" stroke="#b8bedc" stroke-width="1.51"/><path d="M46,353L34,405L130,356Z" fill="#b896c7" stroke="#b896c7" stroke-width="1.51"/><path d="M97,274L46,353L130,356Z" fill="#b8a0cd" stroke="#b8a0cd" stroke-width="1.51"/><path d="M130,356L34,405L131,424Z" fill="#b790c2" stroke="#b790c2" stroke-width="1.51"/><path d="M72,-80L103,-19L131,-89Z" fill="#e4eef6" stroke="#e4eef6" stroke-width="1.51"/><path d="M128,107L74,168L134,160Z" fill="#bdcee4" stroke="#bdcee4" stroke-width="1.51"/><path d="M74,168L114,252L134,160Z" fill="#b8c2de" stroke="#b8c2de" stroke-width="1.51"/><path d="M35,317L46,353L97,274Z" fill="#baa4cf" stroke="#baa4cf" stroke-width="1.51"/><path d="M34,405L114,476L131,424Z" fill="#b688b9" stroke="#b688b9" stroke-width="1.51"/><path d="M72,-80L64,-36L103,-19Z" fill="#e2edf5" stroke="#e2edf5" stroke-width="1.51"/><path d="M101,54L45,84L128,107Z" fill="#c8daea" stroke="#c8daea" stroke-width="1.51"/><path d="M45,84L74,168L128,107Z" fill="#c1d5e8" stroke="#c1d5e8" stroke-width="1.51"/><path d="M57,40L101,54L103,-19Z" fill="#d4e2ee" stroke="#d4e2ee" stroke-width="1.51"/><path d="M46,214L97,274L114,252Z" fill="#b8b4d7" stroke="#b8b4d7" stroke-width="1.51"/><path d="M34,405L64,493L114,476Z" fill="#b284b3" stroke="#b284b3" stroke-width="1.51"/><path d="M57,40L45,84L101,54Z" fill="#cedeec" stroke="#cedeec" stroke-width="1.51"/><path d="M64,-36L57,40L103,-19Z" fill="#dae7f1" stroke="#dae7f1" stroke-width="1.51"/><path d="M46,214L35,317L97,274Z" fill="#b9afd5" stroke="#b9afd5" stroke-width="1.51"/><path d="M-25,236L35,317L46,214Z" fill="#bcb4d8" stroke="#bcb4d8" stroke-width="1.51"/><path d="M2,-22L57,40L64,-36Z" fill="#dde8f2" stroke="#dde8f2" stroke-width="1.51"/><path d="M34,405L3,495L64,493Z" fill="#b184b1" stroke="#b184b1" stroke-width="1.51"/><path d="M2,-22L64,-36L72,-80Z" fill="#e4eef5" stroke="#e4eef5" stroke-width="1.51"/><path d="M9,151L46,214L74,168Z" fill="#bdc8e1" stroke="#bdc8e1" stroke-width="1.51"/><path d="M45,84L9,151L74,168Z" fill="#c2d3e6" stroke="#c2d3e6" stroke-width="1.51"/><path d="M-29,-85L2,-22L72,-80Z" fill="#e8f1f7" stroke="#e8f1f7" stroke-width="1.51"/><path d="M-23,409L3,495L34,405Z" fill="#ba8aba" stroke="#ba8aba" stroke-width="1.51"/><path d="M-25,236L-28,310L35,317Z" fill="#bdadd4" stroke="#bdadd4" stroke-width="1.51"/><path d="M-22,45L45,84L57,40Z" fill="#d0e0ed" stroke="#d0e0ed" stroke-width="1.51"/><path d="M2,-22L-22,45L57,40Z" fill="#d9e5f0" stroke="#d9e5f0" stroke-width="1.51"/><path d="M-31,103L9,151L45,84Z" fill="#c6d9ea" stroke="#c6d9ea" stroke-width="1.51"/><path d="M35,317L-23,367L46,353Z" fill="#bb9dcc" stroke="#bb9dcc" stroke-width="1.51"/><path d="M-23,367L34,405L46,353Z" fill="#bb97c8" stroke="#bb97c8" stroke-width="1.51"/><path d="M9,151L-25,236L46,214Z" fill="#bcc4df" stroke="#bcc4df" stroke-width="1.51"/><path d="M-22,45L-31,103L45,84Z" fill="#cedeec" stroke="#cedeec" stroke-width="1.51"/><path d="M-23,367L-23,409L34,405Z" fill="#bc94c4" stroke="#bc94c4" stroke-width="1.51"/><path d="M-28,310L-23,367L35,317Z" fill="#bca2cf" stroke="#bca2cf" stroke-width="1.51"/><path d="M-23,409L-75,420L3,495Z" fill="#bc8aba" stroke="#bc8aba" stroke-width="1.51"/><path d="M-75,420L-97,481L3,495Z" fill="#b587b3" stroke="#b587b3" stroke-width="1.51"/><path d="M-31,103L-91,151L9,151Z" fill="#c5d5e8" stroke="#c5d5e8" stroke-width="1.51"/><path d="M-87,209L-25,236L9,151Z" fill="#bec6e0" stroke="#bec6e0" stroke-width="1.51"/><path d="M-91,151L-87,209L9,151Z" fill="#c3cde4" stroke="#c3cde4" stroke-width="1.51"/><path d="M-60,299L-28,310L-25,236Z" fill="#beafd5" stroke="#beafd5" stroke-width="1.51"/><path d="M-75,-39L-22,45L2,-22Z" fill="#e0ebf3" stroke="#e0ebf3" stroke-width="1.51"/><path d="M-29,-85L-75,-39L2,-22Z" fill="#e8f2f8" stroke="#e8f2f8" stroke-width="1.51"/><path d="M-87,209L-60,299L-25,236Z" fill="#c0b9da" stroke="#c0b9da" stroke-width="1.51"/><path d="M-28,310L-68,351L-23,367Z" fill="#bea0ce" stroke="#bea0ce" stroke-width="1.51"/><path d="M-75,420L-23,409L-23,367Z" fill="#bd93c3" stroke="#bd93c3" stroke-width="1.51"/><path d="M-68,351L-75,420L-23,367Z" fill="#be98c8" stroke="#be98c8" stroke-width="1.51"/><path d="M-89,55L-31,103L-22,45Z" fill="#d2e1ee" stroke="#d2e1ee" stroke-width="1.51"/><path d="M-75,-39L-89,55L-22,45Z" fill="#dce8f2" stroke="#dce8f2" stroke-width="1.51"/><path d="M-60,299L-68,351L-28,310Z" fill="#bfa6d1" stroke="#bfa6d1" stroke-width="1.51"/><path d="M-94,106L-91,151L-31,103Z" fill="#c9daeb" stroke="#c9daeb" stroke-width="1.51"/><path d="M-89,-70L-75,-39L-29,-85Z" fill="#ecf4f8" stroke="#ecf4f8" stroke-width="1.51"/><path d="M-89,55L-94,106L-31,103Z" fill="#cfdfed" stroke="#cfdfed" stroke-width="1.51"/><path d="M-87,209L-68,351L-60,299Z" fill="#c0afd5" stroke="#c0afd5" stroke-width="1.51"/><path d="M-97,481L-75,420L-68,351Z" fill="#bf91c1" stroke="#bf91c1" stroke-width="1.51"/><path d="M-87,209L-97,481L-68,351Z" fill="#c0a0ce" stroke="#c0a0ce" stroke-width="1.51"/><path d="M-89,-70L-89,55L-75,-39Z" fill="#e5eff6" stroke="#e5eff6" stroke-width="1.51"/><path d="M-94,106L-89,55L-89,-70Z" fill="#dce8f1" stroke="#dce8f1" stroke-width="1.51"/><path d="M-91,151L-97,481L-87,209Z" fill="#c1b1d6" stroke="#c1b1d6" stroke-width="1.51"/><path d="M-94,106L-97,481L-91,151Z" fill="#c1bbdb" stroke="#c1bbdb" stroke-width="1.51"/></svg>