<svg xmlns="http://www.w3.org/2000/svg" width="1600" height="200"><path d="M-3,-107L74,-112L164,-118Z" fill="#c62528" stroke="#c62528" stroke-width="1.51"/><path d="M164,-118L323,-112L383,-113Z" fill="#d54e37" stroke="#d54e37" stroke-width="1.51"/><path d="M523,313L459,315L893,312Z" fill="#92ac65" stroke="#92ac65" stroke-width="1.51"/><path d="M164,-118L383,-113L895,-115Z" fill="#da7147" stroke="#da7147" stroke-width="1.51"/><path d="M383,-113L639,-105L895,-115Z" fill="#e08859" stroke="#e08859" stroke-width="1.51"/><path d="M895,-115L1012,-97L1206,-99Z" fill="#cf9051" stroke="#cf9051" stroke-width="1.51"/><path d="M1178,303L1080,301L1298,314Z" fill="#60a956" stroke="#60a956" stroke-width="1.51"/><path d="M1080,301L893,312L1298,314Z" fill="#6eae5b" stroke="#6eae5b" stroke-width="1.51"/><path d="M1206,-99L1346,-76L1436,-88Z" fill="#b18543" stroke="#b18543" stroke-width="1.51"/><path d="M1436,-88L1492,-76L1548,-80Z" fill="#9d793c" stroke="#9d793c" stroke-width="1.51"/><path d="M1570,277L1485,274L1595,285Z" fill="#1d964f" stroke="#1d964f" stroke-width="1.51"/><path d="M1485,274L1414,293L1595,285Z" fill="#239a51" stroke="#239a51" stroke-width="1.51"/><path d="M1206,-99L1436,-88L1608,-103Z" fill="#a07b40" stroke="#a07b40" stroke-width="1.51"/><path d="M895,-115L1206,-99L1608,-103Z" fill="#b48545" stroke="#b48545" stroke-width="1.51"/><path d="M1436,-88L1548,-80L1608,-103Z" fill="#94723a" stroke="#94723a" stroke-width="1.51"/><path d="M1595,285L1414,293L1658,311Z" fill="#148c4a" stroke="#148c4a" stroke-width="1.51"/><path d="M1414,293L1298,314L1658,311Z" fill="#29924d" stroke="#29924d" stroke-width="1.51"/><path d="M1617,239L1658,311L1678,208Z" fill="#32934d" stroke="#32934d" stroke-width="1.51"/><path d="M1674,-80L1673,-39L1681,19Z" fill="#957940" stroke="#957940" stroke-width="1.51"/><path d="M1611,93L1676,147L1694,85Z" fill="#8bb777" stroke="#8bb777" stroke-width="1.51"/><path d="M1681,19L1633,27L1694,85Z" fill="#91a45d" stroke="#91a45d" stroke-width="1.51"/><path d="M1633,27L1611,93L1694,85Z" fill="#92b16c" stroke="#92b16c" stroke-width="1.51"/><path d="M1676,147L1678,208L1694,85Z" fill="#7aad61" stroke="#7aad61" stroke-width="1.51"/><path d="M1674,-80L1681,19L1694,85Z" fill="#93914d" stroke="#93914d" stroke-width="1.51"/><path d="M1676,147L1619,172L1678,208Z" fill="#6ba959" stroke="#6ba959" stroke-width="1.51"/><path d="M1673,-39L1633,27L1681,19Z" fill="#95904c" stroke="#95904c" stroke-width="1.51"/><path d="M1603,-41L1633,27L1673,-39Z" fill="#988848" stroke="#988848" stroke-width="1.51"/><path d="M1603,-41L1673,-39L1674,-80Z" fill="#93723b" stroke="#93723b" stroke-width="1.51"/><path d="M1611,93L1619,172L1676,147Z" fill="#81b669" stroke="#81b669" stroke-width="1.51"/><path d="M1619,172L1617,239L1678,208Z" fill="#58a554" stroke="#58a554" stroke-width="1.51"/><path d="M1617,239L1595,285L1658,311Z" fill="#198c4a" stroke="#198c4a" stroke-width="1.51"/><path d="M1608,-103L1603,-41L1674,-80Z" fill="#916b36" stroke="#916b36" stroke-width="1.51"/><path d="M1206,-99L1269,-81L1346,-76Z" fill="#b98944" stroke="#b98944" stroke-width="1.51"/><path d="M1611,93L1557,117L1619,172Z" fill="#88bd72" stroke="#88bd72" stroke-width="1.51"/><path d="M1535,38L1611,93L1633,27Z" fill="#97b367" stroke="#97b367" stroke-width="1.51"/><path d="M1603,-41L1535,38L1633,27Z" fill="#9b9d53" stroke="#9b9d53" stroke-width="1.51"/><path d="M1526,-12L1535,38L1603,-41Z" fill="#9f9b51" stroke="#9f9b51" stroke-width="1.51"/><path d="M1548,-80L1603,-41L1608,-103Z" fill="#957138" stroke="#957138" stroke-width="1.51"/><path d="M1545,165L1525,212L1617,239Z" fill="#5eaf59" stroke="#5eaf59" stroke-width="1.51"/><path d="M1570,277L1595,285L1617,239Z" fill="#28954e" stroke="#28954e" stroke-width="1.51"/><path d="M1557,117L1545,165L1619,172Z" fill="#7fbc68" stroke="#7fbc68" stroke-width="1.51"/><path d="M1545,165L1617,239L1619,172Z" fill="#66ae58" stroke="#66ae58" stroke-width="1.51"/><path d="M1525,212L1570,277L1617,239Z" fill="#3fa255" stroke="#3fa255" stroke-width="1.51"/><path d="M1535,38L1557,117L1611,93Z" fill="#97c079" stroke="#97c079" stroke-width="1.51"/><path d="M1548,-80L1526,-12L1603,-41Z" fill="#9e8444" stroke="#9e8444" stroke-width="1.51"/><path d="M1535,38L1502,84L1557,117Z" fill="#9ac57b" stroke="#9ac57b" stroke-width="1.51"/><path d="M1525,212L1485,274L1570,277Z" fill="#38a355" stroke="#38a355" stroke-width="1.51"/><path d="M1492,-76L1526,-12L1548,-80Z" fill="#9f8243" stroke="#9f8243" stroke-width="1.51"/><path d="M1494,171L1545,165L1557,117Z" fill="#82c16a" stroke="#82c16a" stroke-width="1.51"/><path d="M1502,84L1494,171L1557,117Z" fill="#90c979" stroke="#90c979" stroke-width="1.51"/><path d="M1494,171L1525,212L1545,165Z" fill="#71bb60" stroke="#71bb60" stroke-width="1.51"/><path d="M1492,-76L1497,-12L1526,-12Z" fill="#a6904b" stroke="#a6904b" stroke-width="1.51"/><path d="M1463,34L1502,84L1535,38Z" fill="#a0bf6d" stroke="#a0bf6d" stroke-width="1.51"/><path d="M1526,-12L1497,-12L1535,38Z" fill="#a2a557" stroke="#a2a557" stroke-width="1.51"/><path d="M1497,-12L1463,34L1535,38Z" fill="#a4af5f" stroke="#a4af5f" stroke-width="1.51"/><path d="M1494,171L1462,214L1525,212Z" fill="#6ab95e" stroke="#6ab95e" stroke-width="1.51"/><path d="M1462,214L1485,274L1525,212Z" fill="#50af5b" stroke="#50af5b" stroke-width="1.51"/><path d="M1492,-76L1419,-48L1497,-12Z" fill="#a98d49" stroke="#a98d49" stroke-width="1.51"/><path d="M1427,105L1494,171L1502,84Z" fill="#99ce7e" stroke="#99ce7e" stroke-width="1.51"/><path d="M1463,34L1427,105L1502,84Z" fill="#a4ca7c" stroke="#a4ca7c" stroke-width="1.51"/><path d="M1436,-88L1419,-48L1492,-76Z" fill="#a58242" stroke="#a58242" stroke-width="1.51"/><path d="M1427,105L1401,145L1494,171Z" fill="#95ce74" stroke="#95ce74" stroke-width="1.51"/><path d="M1411,14L1463,34L1497,-12Z" fill="#aaaf5d" stroke="#aaaf5d" stroke-width="1.51"/><path d="M1419,-48L1411,14L1497,-12Z" fill="#aea055" stroke="#aea055" stroke-width="1.51"/><path d="M1401,145L1462,214L1494,171Z" fill="#7fc366" stroke="#7fc366" stroke-width="1.51"/><path d="M1401,145L1418,215L1462,214Z" fill="#7bc262" stroke="#7bc262" stroke-width="1.51"/><path d="M1418,215L1414,293L1462,214Z" fill="#54b35d" stroke="#54b35d" stroke-width="1.51"/><path d="M1462,214L1414,293L1485,274Z" fill="#42a859" stroke="#42a859" stroke-width="1.51"/><path d="M1411,14L1427,105L1463,34Z" fill="#aac570" stroke="#aac570" stroke-width="1.51"/><path d="M383,-113L567,-100L639,-105Z" fill="#e07b4c" stroke="#e07b4c" stroke-width="1.51"/><path d="M1355,279L1298,314L1414,293Z" fill="#41a255" stroke="#41a255" stroke-width="1.51"/><path d="M1355,279L1414,293L1418,215Z" fill="#4bad5b" stroke="#4bad5b" stroke-width="1.51"/><path d="M1411,14L1357,38L1427,105Z" fill="#afc973" stroke="#afc973" stroke-width="1.51"/><path d="M1346,-76L1419,-48L1436,-88Z" fill="#ac8644" stroke="#ac8644" stroke-width="1.51"/><path d="M1012,-97L1140,-85L1206,-99Z" fill="#ca8f4a" stroke="#ca8f4a" stroke-width="1.51"/><path d="M1401,145L1347,155L1418,215Z" fill="#8ccb6b" stroke="#8ccb6b" stroke-width="1.51"/><path d="M1339,228L1355,279L1418,215Z" fill="#5fb960" stroke="#5fb960" stroke-width="1.51"/><path d="M1342,-25L1411,14L1419,-48Z" fill="#b5a255" stroke="#b5a255" stroke-width="1.51"/><path d="M1334,113L1401,145L1427,105Z" fill="#a6d782" stroke="#a6d782" stroke-width="1.51"/><path d="M1357,38L1334,113L1427,105Z" fill="#b1d786" stroke="#b1d786" stroke-width="1.51"/><path d="M1347,155L1339,228L1418,215Z" fill="#7ec665" stroke="#7ec665" stroke-width="1.51"/><path d="M1346,-76L1342,-25L1419,-48Z" fill="#b5934d" stroke="#b5934d" stroke-width="1.51"/><path d="M653,290L523,313L893,312Z" fill="#94b66f" stroke="#94b66f" stroke-width="1.51"/><path d="M1224,298L1178,303L1298,314Z" fill="#58a655" stroke="#58a655" stroke-width="1.51"/><path d="M1342,-25L1357,38L1411,14Z" fill="#b7b660" stroke="#b7b660" stroke-width="1.51"/><path d="M1334,113L1347,155L1401,145Z" fill="#a3d67a" stroke="#a3d67a" stroke-width="1.51"/><path d="M1290,185L1339,228L1347,155Z" fill="#8ccd68" stroke="#8ccd68" stroke-width="1.51"/><path d="M1291,90L1334,113L1357,38Z" fill="#b9da85" stroke="#b9da85" stroke-width="1.51"/><path d="M1301,28L1291,90L1357,38Z" fill="#bbd176" stroke="#bbd176" stroke-width="1.51"/><path d="M1342,-25L1301,28L1357,38Z" fill="#bcbc64" stroke="#bcbc64" stroke-width="1.51"/><path d="M1339,228L1298,314L1355,279Z" fill="#4faf5b" stroke="#4faf5b" stroke-width="1.51"/><path d="M1281,218L1298,314L1339,228Z" fill="#63b960" stroke="#63b960" stroke-width="1.51"/><path d="M1289,-34L1301,28L1342,-25Z" fill="#c0af5c" stroke="#c0af5c" stroke-width="1.51"/><path d="M1289,-34L1342,-25L1346,-76Z" fill="#bd9950" stroke="#bd9950" stroke-width="1.51"/><path d="M1334,113L1290,185L1347,155Z" fill="#a2d675" stroke="#a2d675" stroke-width="1.51"/><path d="M1269,-81L1289,-34L1346,-76Z" fill="#bc924a" stroke="#bc924a" stroke-width="1.51"/><path d="M1290,185L1281,218L1339,228Z" fill="#81c966" stroke="#81c966" stroke-width="1.51"/><path d="M1291,90L1290,185L1334,113Z" fill="#afdc81" stroke="#afdc81" stroke-width="1.51"/><path d="M1214,251L1224,298L1281,218Z" fill="#6ebd61" stroke="#6ebd61" stroke-width="1.51"/><path d="M1239,151L1290,185L1291,90Z" fill="#afdc7a" stroke="#afdc7a" stroke-width="1.51"/><path d="M1281,218L1224,298L1298,314Z" fill="#5bb25c" stroke="#5bb25c" stroke-width="1.51"/><path d="M1289,-34L1236,-36L1301,28Z" fill="#c6af5c" stroke="#c6af5c" stroke-width="1.51"/><path d="M1236,-36L1211,52L1301,28Z" fill="#c8c266" stroke="#c8c266" stroke-width="1.51"/><path d="M1211,52L1291,90L1301,28Z" fill="#c3d679" stroke="#c3d679" stroke-width="1.51"/><path d="M1211,52L1214,83L1291,90Z" fill="#c7df84" stroke="#c7df84" stroke-width="1.51"/><path d="M1269,-81L1236,-36L1289,-34Z" fill="#c49b4f" stroke="#c49b4f" stroke-width="1.51"/><path d="M1214,83L1239,151L1291,90Z" fill="#c2e48e" stroke="#c2e48e" stroke-width="1.51"/><path d="M1239,151L1281,218L1290,185Z" fill="#98d36a" stroke="#98d36a" stroke-width="1.51"/><path d="M1239,151L1214,251L1281,218Z" fill="#8ece67" stroke="#8ece67" stroke-width="1.51"/><path d="M788,289L653,290L893,312Z" fill="#95c17e" stroke="#95c17e" stroke-width="1.51"/><path d="M1206,-99L1236,-36L1269,-81Z" fill="#c39248" stroke="#c39248" stroke-width="1.51"/><path d="M1012,-97L1112,-78L1140,-85Z" fill="#d2934d" stroke="#d2934d" stroke-width="1.51"/><path d="M1151,33L1211,52L1236,-36Z" fill="#d0c768" stroke="#d0c768" stroke-width="1.51"/><path d="M1142,-22L1151,33L1236,-36Z" fill="#d4b95f" stroke="#d4b95f" stroke-width="1.51"/><path d="M1214,83L1178,142L1239,151Z" fill="#c1e485" stroke="#c1e485" stroke-width="1.51"/><path d="M1169,225L1214,251L1239,151Z" fill="#93d068" stroke="#93d068" stroke-width="1.51"/><path d="M1178,142L1169,225L1239,151Z" fill="#acdb70" stroke="#acdb70" stroke-width="1.51"/><path d="M1206,-99L1142,-22L1236,-36Z" fill="#ce9e50" stroke="#ce9e50" stroke-width="1.51"/><path d="M1140,-85L1142,-22L1206,-99Z" fill="#ce984b" stroke="#ce984b" stroke-width="1.51"/><path d="M1214,251L1178,303L1224,298Z" fill="#62b45b" stroke="#62b45b" stroke-width="1.51"/><path d="M1211,52L1154,97L1214,83Z" fill="#cee387" stroke="#cee387" stroke-width="1.51"/><path d="M1154,97L1178,142L1214,83Z" fill="#cde990" stroke="#cde990" stroke-width="1.51"/><path d="M1169,225L1178,303L1214,251Z" fill="#74bf61" stroke="#74bf61" stroke-width="1.51"/><path d="M1151,33L1154,97L1211,52Z" fill="#d2df7e" stroke="#d2df7e" stroke-width="1.51"/><path d="M370,299L72,307L459,315Z" fill="#998546" stroke="#998546" stroke-width="1.51"/><path d="M1084,148L1092,228L1169,225Z" fill="#a7d96e" stroke="#a7d96e" stroke-width="1.51"/><path d="M1169,225L1092,228L1178,303Z" fill="#80c564" stroke="#80c564" stroke-width="1.51"/><path d="M1092,228L1080,301L1178,303Z" fill="#75bd62" stroke="#75bd62" stroke-width="1.51"/><path d="M1084,148L1169,225L1178,142Z" fill="#b4df73" stroke="#b4df73" stroke-width="1.51"/><path d="M1154,97L1084,148L1178,142Z" fill="#cae986" stroke="#cae986" stroke-width="1.51"/><path d="M1140,-85L1112,-78L1142,-22Z" fill="#d49d50" stroke="#d49d50" stroke-width="1.51"/><path d="M1142,-22L1102,30L1151,33Z" fill="#daca6a" stroke="#daca6a" stroke-width="1.51"/><path d="M1151,33L1102,30L1154,97Z" fill="#d7de7c" stroke="#d7de7c" stroke-width="1.51"/><path d="M1102,30L1082,106L1154,97Z" fill="#dbe88c" stroke="#dbe88c" stroke-width="1.51"/><path d="M1082,106L1084,148L1154,97Z" fill="#d4ed90" stroke="#d4ed90" stroke-width="1.51"/><path d="M1112,-78L1088,-21L1142,-22Z" fill="#dca959" stroke="#dca959" stroke-width="1.51"/><path d="M1088,-21L1102,30L1142,-22Z" fill="#ddc066" stroke="#ddc066" stroke-width="1.51"/><path d="M1037,275L943,281L1080,301Z" fill="#7fbf68" stroke="#7fbf68" stroke-width="1.51"/><path d="M943,281L893,312L1080,301Z" fill="#82bb69" stroke="#82bb69" stroke-width="1.51"/><path d="M1037,275L1080,301L1092,228Z" fill="#82c368" stroke="#82c368" stroke-width="1.51"/><path d="M1045,87L1082,106L1102,30Z" fill="#e0e98e" stroke="#e0e98e" stroke-width="1.51"/><path d="M1038,-45L1088,-21L1112,-78Z" fill="#dea759" stroke="#dea759" stroke-width="1.51"/><path d="M1012,-97L1038,-45L1112,-78Z" fill="#db9b53" stroke="#db9b53" stroke-width="1.51"/><path d="M639,-105L763,-86L895,-115Z" fill="#e89669" stroke="#e89669" stroke-width="1.51"/><path d="M1084,148L1045,149L1092,228Z" fill="#bce378" stroke="#bce378" stroke-width="1.51"/><path d="M1045,149L1019,228L1092,228Z" fill="#afdd73" stroke="#afdd73" stroke-width="1.51"/><path d="M1088,-21L1027,55L1102,30Z" fill="#e2d173" stroke="#e2d173" stroke-width="1.51"/><path d="M1027,55L1045,87L1102,30Z" fill="#e2e486" stroke="#e2e486" stroke-width="1.51"/><path d="M1082,106L1045,149L1084,148Z" fill="#d1ec89" stroke="#d1ec89" stroke-width="1.51"/><path d="M1038,-45L1027,55L1088,-21Z" fill="#e5c46b" stroke="#e5c46b" stroke-width="1.51"/><path d="M1019,228L1037,275L1092,228Z" fill="#93cf6f" stroke="#93cf6f" stroke-width="1.51"/><path d="M1045,87L1045,149L1082,106Z" fill="#dcf096" stroke="#dcf096" stroke-width="1.51"/><path d="M224,289L72,307L370,299Z" fill="#9a7e42" stroke="#9a7e42" stroke-width="1.51"/><path d="M895,-115L951,-84L1012,-97Z" fill="#db9559" stroke="#db9559" stroke-width="1.51"/><path d="M942,-23L951,54L1027,55Z" fill="#eeda80" stroke="#eeda80" stroke-width="1.51"/><path d="M942,-23L1027,55L1038,-45Z" fill="#ebc66f" stroke="#ebc66f" stroke-width="1.51"/><path d="M978,159L1019,228L1045,149Z" fill="#c2e57c" stroke="#c2e57c" stroke-width="1.51"/><path d="M968,103L978,159L1045,149Z" fill="#dbf08f" stroke="#dbf08f" stroke-width="1.51"/><path d="M968,103L1045,149L1045,87Z" fill="#e2f39a" stroke="#e2f39a" stroke-width="1.51"/><path d="M1027,55L968,103L1045,87Z" fill="#e8ef98" stroke="#e8ef98" stroke-width="1.51"/><path d="M978,159L965,210L1019,228Z" fill="#bae179" stroke="#bae179" stroke-width="1.51"/><path d="M1012,-97L951,-84L1038,-45Z" fill="#e19d57" stroke="#e19d57" stroke-width="1.51"/><path d="M951,-84L942,-23L1038,-45Z" fill="#eaaa61" stroke="#eaaa61" stroke-width="1.51"/><path d="M1019,228L943,281L1037,275Z" fill="#90cb70" stroke="#90cb70" stroke-width="1.51"/><path d="M639,-105L682,-92L763,-86Z" fill="#eb9360" stroke="#eb9360" stroke-width="1.51"/><path d="M951,54L968,103L1027,55Z" fill="#eced94" stroke="#eced94" stroke-width="1.51"/><path d="M965,210L943,281L1019,228Z" fill="#a0d577" stroke="#a0d577" stroke-width="1.51"/><path d="M912,239L943,281L965,210Z" fill="#a2d57b" stroke="#a2d57b" stroke-width="1.51"/><path d="M968,103L908,174L978,159Z" fill="#ddf190" stroke="#ddf190" stroke-width="1.51"/><path d="M908,174L965,210L978,159Z" fill="#c9e882" stroke="#c9e882" stroke-width="1.51"/><path d="M942,-23L880,15L951,54Z" fill="#f4d581" stroke="#f4d581" stroke-width="1.51"/><path d="M951,54L879,118L968,103Z" fill="#f1f6a7" stroke="#f1f6a7" stroke-width="1.51"/><path d="M879,118L908,174L968,103Z" fill="#e6f49c" stroke="#e6f49c" stroke-width="1.51"/><path d="M907,-33L942,-23L951,-84Z" fill="#f0ae69" stroke="#f0ae69" stroke-width="1.51"/><path d="M908,174L912,239L965,210Z" fill="#bae280" stroke="#bae280" stroke-width="1.51"/><path d="M907,-33L880,15L942,-23Z" fill="#f5c378" stroke="#f5c378" stroke-width="1.51"/><path d="M895,-115L907,-33L951,-84Z" fill="#ea9f60" stroke="#ea9f60" stroke-width="1.51"/><path d="M880,15L852,87L951,54Z" fill="#f5ea96" stroke="#f5ea96" stroke-width="1.51"/><path d="M852,87L879,118L951,54Z" fill="#f6f7aa" stroke="#f6f7aa" stroke-width="1.51"/><path d="M912,239L893,312L943,281Z" fill="#90c977" stroke="#90c977" stroke-width="1.51"/><path d="M835,285L788,289L893,312Z" fill="#91c37d" stroke="#91c37d" stroke-width="1.51"/><path d="M763,-86L841,-85L895,-115Z" fill="#e99a6a" stroke="#e99a6a" stroke-width="1.51"/><path d="M895,-115L841,-85L907,-33Z" fill="#eda066" stroke="#eda066" stroke-width="1.51"/><path d="M841,-85L842,-37L907,-33Z" fill="#f6ae71" stroke="#f6ae71" stroke-width="1.51"/><path d="M835,285L893,312L912,239Z" fill="#93ca7b" stroke="#93ca7b" stroke-width="1.51"/><path d="M835,213L835,285L912,239Z" fill="#a9d886" stroke="#a9d886" stroke-width="1.51"/><path d="M908,174L835,213L912,239Z" fill="#bee387" stroke="#bee387" stroke-width="1.51"/><path d="M842,-37L880,15L907,-33Z" fill="#f9c17b" stroke="#f9c17b" stroke-width="1.51"/><path d="M879,118L820,160L908,174Z" fill="#e2f399" stroke="#e2f399" stroke-width="1.51"/><path d="M820,160L835,213L908,174Z" fill="#d2ec90" stroke="#d2ec90" stroke-width="1.51"/><path d="M822,56L852,87L880,15Z" fill="#faed9c" stroke="#faed9c" stroke-width="1.51"/><path d="M842,-37L822,56L880,15Z" fill="#fcd68a" stroke="#fcd68a" stroke-width="1.51"/><path d="M852,87L820,160L879,118Z" fill="#f1f9ab" stroke="#f1f9ab" stroke-width="1.51"/><path d="M686,276L653,290L788,289Z" fill="#9ac378" stroke="#9ac378" stroke-width="1.51"/><path d="M835,213L788,289L835,285Z" fill="#a3d387" stroke="#a3d387" stroke-width="1.51"/><path d="M780,41L822,56L842,-37Z" fill="#ffdc93" stroke="#ffdc93" stroke-width="1.51"/><path d="M822,56L769,94L852,87Z" fill="#fef7b1" stroke="#fef7b1" stroke-width="1.51"/><path d="M769,94L820,160L852,87Z" fill="#f8fcb5" stroke="#f8fcb5" stroke-width="1.51"/><path d="M746,233L788,289L835,213Z" fill="#b0da8d" stroke="#b0da8d" stroke-width="1.51"/><path d="M747,-30L780,41L842,-37Z" fill="#ffca87" stroke="#ffca87" stroke-width="1.51"/><path d="M841,-85L763,-86L842,-37Z" fill="#f6a672" stroke="#f6a672" stroke-width="1.51"/><path d="M763,-86L747,-30L842,-37Z" fill="#fcaf77" stroke="#fcaf77" stroke-width="1.51"/><path d="M820,160L761,166L835,213Z" fill="#d9ef98" stroke="#d9ef98" stroke-width="1.51"/><path d="M761,166L746,233L835,213Z" fill="#cbe790" stroke="#cbe790" stroke-width="1.51"/><path d="M769,94L761,166L820,160Z" fill="#eff7a6" stroke="#eff7a6" stroke-width="1.51"/><path d="M780,41L769,94L822,56Z" fill="#fff1a8" stroke="#fff1a8" stroke-width="1.51"/><path d="M725,114L761,166L769,94Z" fill="#f5f7aa" stroke="#f5f7aa" stroke-width="1.51"/><path d="M747,-30L710,32L780,41Z" fill="#ffd58a" stroke="#ffd58a" stroke-width="1.51"/><path d="M746,233L686,276L788,289Z" fill="#a4ce81" stroke="#a4ce81" stroke-width="1.51"/><path d="M716,214L746,233L761,166Z" fill="#cae38b" stroke="#cae38b" stroke-width="1.51"/><path d="M710,32L769,94L780,41Z" fill="#ffec9f" stroke="#ffec9f" stroke-width="1.51"/><path d="M710,32L725,114L769,94Z" fill="#fff2aa" stroke="#fff2aa" stroke-width="1.51"/><path d="M725,114L692,164L761,166Z" fill="#ebf09a" stroke="#ebf09a" stroke-width="1.51"/><path d="M692,164L716,214L761,166Z" fill="#d9e88d" stroke="#d9e88d" stroke-width="1.51"/><path d="M700,-38L747,-30L763,-86Z" fill="#fbab71" stroke="#fbab71" stroke-width="1.51"/><path d="M682,-92L700,-38L763,-86Z" fill="#f59e67" stroke="#f59e67" stroke-width="1.51"/><path d="M716,214L686,276L746,233Z" fill="#b3d683" stroke="#b3d683" stroke-width="1.51"/><path d="M700,-38L710,32L747,-30Z" fill="#ffc27d" stroke="#ffc27d" stroke-width="1.51"/><path d="M571,286L523,313L653,290Z" fill="#98b165" stroke="#98b165" stroke-width="1.51"/><path d="M700,-38L655,-15L710,32Z" fill="#ffc27a" stroke="#ffc27a" stroke-width="1.51"/><path d="M710,32L631,112L725,114Z" fill="#fff0a7" stroke="#fff0a7" stroke-width="1.51"/><path d="M631,112L692,164L725,114Z" fill="#f3f09d" stroke="#f3f09d" stroke-width="1.51"/><path d="M620,21L631,112L710,32Z" fill="#ffe390" stroke="#ffe390" stroke-width="1.51"/><path d="M692,164L648,207L716,214Z" fill="#d1e284" stroke="#d1e284" stroke-width="1.51"/><path d="M648,207L686,276L716,214Z" fill="#b9d681" stroke="#b9d681" stroke-width="1.51"/><path d="M383,-113L518,-88L567,-100Z" fill="#e37848" stroke="#e37848" stroke-width="1.51"/><path d="M655,-15L620,21L710,32Z" fill="#ffcd7d" stroke="#ffcd7d" stroke-width="1.51"/><path d="M682,-92L655,-15L700,-38Z" fill="#fba76a" stroke="#fba76a" stroke-width="1.51"/><path d="M639,-105L655,-15L682,-92Z" fill="#f49a60" stroke="#f49a60" stroke-width="1.51"/><path d="M648,207L653,290L686,276Z" fill="#aacb78" stroke="#aacb78" stroke-width="1.51"/><path d="M620,169L648,207L692,164Z" fill="#d9e284" stroke="#d9e284" stroke-width="1.51"/><path d="M631,112L620,169L692,164Z" fill="#ebea8e" stroke="#ebea8e" stroke-width="1.51"/><path d="M620,21L593,52L631,112Z" fill="#ffe28e" stroke="#ffe28e" stroke-width="1.51"/><path d="M593,52L594,83L631,112Z" fill="#ffe899" stroke="#ffe899" stroke-width="1.51"/><path d="M567,-100L574,-26L639,-105Z" fill="#f18f55" stroke="#f18f55" stroke-width="1.51"/><path d="M648,207L567,247L653,290Z" fill="#b0cc75" stroke="#b0cc75" stroke-width="1.51"/><path d="M567,247L571,286L653,290Z" fill="#a1bd6c" stroke="#a1bd6c" stroke-width="1.51"/><path d="M639,-105L574,-26L655,-15Z" fill="#f9a262" stroke="#f9a262" stroke-width="1.51"/><path d="M574,-26L620,21L655,-15Z" fill="#febd70" stroke="#febd70" stroke-width="1.51"/><path d="M620,169L567,247L648,207Z" fill="#c9d778" stroke="#c9d778" stroke-width="1.51"/><path d="M566,160L567,247L620,169Z" fill="#d3d876" stroke="#d3d876" stroke-width="1.51"/><path d="M566,160L620,169L631,112Z" fill="#ebe689" stroke="#ebe689" stroke-width="1.51"/><path d="M594,83L566,160L631,112Z" fill="#f8ea98" stroke="#f8ea98" stroke-width="1.51"/><path d="M574,-26L593,52L620,21Z" fill="#fec876" stroke="#fec876" stroke-width="1.51"/><path d="M566,160L525,184L567,247Z" fill="#d1d372" stroke="#d1d372" stroke-width="1.51"/><path d="M567,-100L525,-47L574,-26Z" fill="#f69458" stroke="#f69458" stroke-width="1.51"/><path d="M574,-26L525,16L593,52Z" fill="#fec372" stroke="#fec372" stroke-width="1.51"/><path d="M487,122L566,160L594,83Z" fill="#f7e290" stroke="#f7e290" stroke-width="1.51"/><path d="M593,52L525,16L594,83Z" fill="#fed783" stroke="#fed783" stroke-width="1.51"/><path d="M525,16L487,122L594,83Z" fill="#ffdb8c" stroke="#ffdb8c" stroke-width="1.51"/><path d="M-31,296L-60,296L72,307Z" fill="#876535" stroke="#876535" stroke-width="1.51"/><path d="M518,-88L525,-47L567,-100Z" fill="#ef874f" stroke="#ef874f" stroke-width="1.51"/><path d="M525,-47L525,16L574,-26Z" fill="#fcaa63" stroke="#fcaa63" stroke-width="1.51"/><path d="M525,184L487,223L567,247Z" fill="#c4c96e" stroke="#c4c96e" stroke-width="1.51"/><path d="M567,247L523,313L571,286Z" fill="#9eb565" stroke="#9eb565" stroke-width="1.51"/><path d="M487,122L525,184L566,160Z" fill="#e8d97d" stroke="#e8d97d" stroke-width="1.51"/><path d="M487,223L523,313L567,247Z" fill="#aaba67" stroke="#aaba67" stroke-width="1.51"/><path d="M443,249L459,315L487,223Z" fill="#abb25f" stroke="#abb25f" stroke-width="1.51"/><path d="M383,-113L428,-74L518,-88Z" fill="#e77344" stroke="#e77344" stroke-width="1.51"/><path d="M487,223L459,315L523,313Z" fill="#9fac5e" stroke="#9fac5e" stroke-width="1.51"/><path d="M451,101L487,122L525,16Z" fill="#ffd78a" stroke="#ffd78a" stroke-width="1.51"/><path d="M462,16L451,101L525,16Z" fill="#fec876" stroke="#fec876" stroke-width="1.51"/><path d="M487,122L440,142L525,184Z" fill="#ecd57a" stroke="#ecd57a" stroke-width="1.51"/><path d="M440,142L487,223L525,184Z" fill="#dacd6e" stroke="#dacd6e" stroke-width="1.51"/><path d="M518,-88L442,-41L525,-47Z" fill="#f48b50" stroke="#f48b50" stroke-width="1.51"/><path d="M462,16L525,16L525,-47Z" fill="#fdae64" stroke="#fdae64" stroke-width="1.51"/><path d="M442,-41L462,16L525,-47Z" fill="#fb9d5a" stroke="#fb9d5a" stroke-width="1.51"/><path d="M428,-74L442,-41L518,-88Z" fill="#f1814a" stroke="#f1814a" stroke-width="1.51"/><path d="M199,287L72,307L224,289Z" fill="#997a3e" stroke="#997a3e" stroke-width="1.51"/><path d="M440,142L443,249L487,223Z" fill="#cdc467" stroke="#cdc467" stroke-width="1.51"/><path d="M451,101L440,142L487,122Z" fill="#f8d686" stroke="#f8d686" stroke-width="1.51"/><path d="M374,155L375,215L440,142Z" fill="#e1c469" stroke="#e1c469" stroke-width="1.51"/><path d="M440,142L375,215L443,249Z" fill="#cfbf63" stroke="#cfbf63" stroke-width="1.51"/><path d="M443,249L370,299L459,315Z" fill="#9fa256" stroke="#9fa256" stroke-width="1.51"/><path d="M442,-41L382,-11L462,16Z" fill="#fc9f59" stroke="#fc9f59" stroke-width="1.51"/><path d="M382,-11L393,41L462,16Z" fill="#fdae62" stroke="#fdae62" stroke-width="1.51"/><path d="M393,41L451,101L462,16Z" fill="#fec675" stroke="#fec675" stroke-width="1.51"/><path d="M366,96L440,142L451,101Z" fill="#fbd186" stroke="#fbd186" stroke-width="1.51"/><path d="M393,41L366,96L451,101Z" fill="#ffca80" stroke="#ffca80" stroke-width="1.51"/><path d="M316,278L224,289L370,299Z" fill="#a08f4b" stroke="#a08f4b" stroke-width="1.51"/><path d="M366,96L374,155L440,142Z" fill="#f4ca7a" stroke="#f4ca7a" stroke-width="1.51"/><path d="M375,215L370,299L443,249Z" fill="#b1ab5a" stroke="#b1ab5a" stroke-width="1.51"/><path d="M428,-74L382,-11L442,-41Z" fill="#f7894e" stroke="#f7894e" stroke-width="1.51"/><path d="M383,-113L382,-11L428,-74Z" fill="#f07745" stroke="#f07745" stroke-width="1.51"/><path d="M316,278L370,299L375,215Z" fill="#aca255" stroke="#aca255" stroke-width="1.51"/><path d="M323,-112L299,-32L382,-11Z" fill="#f27444" stroke="#f27444" stroke-width="1.51"/><path d="M323,-112L382,-11L383,-113Z" fill="#eb6a3e" stroke="#eb6a3e" stroke-width="1.51"/><path d="M382,-11L294,16L393,41Z" fill="#fca45d" stroke="#fca45d" stroke-width="1.51"/><path d="M294,16L366,96L393,41Z" fill="#feb76d" stroke="#feb76d" stroke-width="1.51"/><path d="M294,16L291,81L366,96Z" fill="#feb771" stroke="#feb771" stroke-width="1.51"/><path d="M319,216L316,278L375,215Z" fill="#bba959" stroke="#bba959" stroke-width="1.51"/><path d="M374,155L319,216L375,215Z" fill="#d4b85e" stroke="#d4b85e" stroke-width="1.51"/><path d="M299,172L319,216L374,155Z" fill="#dbb75f" stroke="#dbb75f" stroke-width="1.51"/><path d="M299,-32L294,16L382,-11Z" fill="#f98f51" stroke="#f98f51" stroke-width="1.51"/><path d="M366,96L299,172L374,155Z" fill="#f0c270" stroke="#f0c270" stroke-width="1.51"/><path d="M291,81L299,172L366,96Z" fill="#fac07b" stroke="#fac07b" stroke-width="1.51"/><path d="M291,81L261,97L299,172Z" fill="#fabb78" stroke="#fabb78" stroke-width="1.51"/><path d="M261,97L244,148L299,172Z" fill="#f0b56a" stroke="#f0b56a" stroke-width="1.51"/><path d="M228,216L316,278L319,216Z" fill="#bba255" stroke="#bba255" stroke-width="1.51"/><path d="M164,-118L244,-75L323,-112Z" fill="#da4934" stroke="#da4934" stroke-width="1.51"/><path d="M244,-75L299,-32L323,-112Z" fill="#ea5e3a" stroke="#ea5e3a" stroke-width="1.51"/><path d="M260,28L291,81L294,16Z" fill="#fca662" stroke="#fca662" stroke-width="1.51"/><path d="M228,216L224,289L316,278Z" fill="#ae944d" stroke="#ae944d" stroke-width="1.51"/><path d="M299,172L228,216L319,216Z" fill="#d0ab57" stroke="#d0ab57" stroke-width="1.51"/><path d="M260,28L294,16L299,-32Z" fill="#f99153" stroke="#f99153" stroke-width="1.51"/><path d="M227,-53L260,28L299,-32Z" fill="#f77c49" stroke="#f77c49" stroke-width="1.51"/><path d="M244,-75L227,-53L299,-32Z" fill="#ef643d" stroke="#ef643d" stroke-width="1.51"/><path d="M244,148L228,216L299,172Z" fill="#dcab5a" stroke="#dcab5a" stroke-width="1.51"/><path d="M260,28L261,97L291,81Z" fill="#feb06f" stroke="#feb06f" stroke-width="1.51"/><path d="M111,285L72,307L199,287Z" fill="#97763b" stroke="#97763b" stroke-width="1.51"/><path d="M193,235L224,289L228,216Z" fill="#b4944d" stroke="#b4944d" stroke-width="1.51"/><path d="M227,-53L194,-29L260,28Z" fill="#f47847" stroke="#f47847" stroke-width="1.51"/><path d="M194,-29L196,39L260,28Z" fill="#f78c50" stroke="#f78c50" stroke-width="1.51"/><path d="M168,109L244,148L261,97Z" fill="#f7b272" stroke="#f7b272" stroke-width="1.51"/><path d="M196,39L168,109L261,97Z" fill="#fcab71" stroke="#fcab71" stroke-width="1.51"/><path d="M260,28L196,39L261,97Z" fill="#fca765" stroke="#fca765" stroke-width="1.51"/><path d="M193,235L199,287L224,289Z" fill="#a68947" stroke="#a68947" stroke-width="1.51"/><path d="M164,-118L227,-53L244,-75Z" fill="#e24a31" stroke="#e24a31" stroke-width="1.51"/><path d="M166,182L228,216L244,148Z" fill="#d8a555" stroke="#d8a555" stroke-width="1.51"/><path d="M168,109L166,182L244,148Z" fill="#e9aa60" stroke="#e9aa60" stroke-width="1.51"/><path d="M164,-118L194,-29L227,-53Z" fill="#e65135" stroke="#e65135" stroke-width="1.51"/><path d="M166,182L193,235L228,216Z" fill="#c79c4f" stroke="#c79c4f" stroke-width="1.51"/><path d="M164,-118L129,-103L194,-29Z" fill="#de412e" stroke="#de412e" stroke-width="1.51"/><path d="M129,-103L122,-28L194,-29Z" fill="#e75335" stroke="#e75335" stroke-width="1.51"/><path d="M122,-28L110,16L194,-29Z" fill="#ee6e41" stroke="#ee6e41" stroke-width="1.51"/><path d="M139,101L168,109L196,39Z" fill="#faa76e" stroke="#faa76e" stroke-width="1.51"/><path d="M194,-29L110,16L196,39Z" fill="#f3834a" stroke="#f3834a" stroke-width="1.51"/><path d="M193,235L111,285L199,287Z" fill="#a58544" stroke="#a58544" stroke-width="1.51"/><path d="M74,-112L129,-103L164,-118Z" fill="#cb2f2b" stroke="#cb2f2b" stroke-width="1.51"/><path d="M100,250L111,285L193,235Z" fill="#a98644" stroke="#a98644" stroke-width="1.51"/><path d="M110,16L139,101L196,39Z" fill="#f5995c" stroke="#f5995c" stroke-width="1.51"/><path d="M166,182L100,250L193,235Z" fill="#be944b" stroke="#be944b" stroke-width="1.51"/><path d="M111,147L100,250L166,182Z" fill="#cd984b" stroke="#cd984b" stroke-width="1.51"/><path d="M111,147L166,182L168,109Z" fill="#e6a45c" stroke="#e6a45c" stroke-width="1.51"/><path d="M139,101L111,147L168,109Z" fill="#f1a66a" stroke="#f1a66a" stroke-width="1.51"/><path d="M68,232L100,250L111,147Z" fill="#c18f46" stroke="#c18f46" stroke-width="1.51"/><path d="M74,-112L122,-28L129,-103Z" fill="#db382a" stroke="#db382a" stroke-width="1.51"/><path d="M110,16L37,48L139,101Z" fill="#f29459" stroke="#f29459" stroke-width="1.51"/><path d="M37,48L42,105L139,101Z" fill="#f39a66" stroke="#f39a66" stroke-width="1.51"/><path d="M42,105L111,147L139,101Z" fill="#efa168" stroke="#efa168" stroke-width="1.51"/><path d="M74,-112L40,-27L122,-28Z" fill="#e0462f" stroke="#e0462f" stroke-width="1.51"/><path d="M42,146L68,232L111,147Z" fill="#d3954c" stroke="#d3954c" stroke-width="1.51"/><path d="M40,-27L110,16L122,-28Z" fill="#ea683d" stroke="#ea683d" stroke-width="1.51"/><path d="M42,105L42,146L111,147Z" fill="#e69b5d" stroke="#e69b5d" stroke-width="1.51"/><path d="M100,250L72,307L111,285Z" fill="#9b783c" stroke="#9b783c" stroke-width="1.51"/><path d="M40,-27L37,48L110,16Z" fill="#eb7744" stroke="#eb7744" stroke-width="1.51"/><path d="M68,232L72,307L100,250Z" fill="#a37d3e" stroke="#a37d3e" stroke-width="1.51"/><path d="M42,146L2,170L68,232Z" fill="#ca9049" stroke="#ca9049" stroke-width="1.51"/><path d="M68,232L-22,238L72,307Z" fill="#a17b3f" stroke="#a17b3f" stroke-width="1.51"/><path d="M-22,238L-31,296L72,307Z" fill="#91703a" stroke="#91703a" stroke-width="1.51"/><path d="M-3,-107L40,-27L74,-112Z" fill="#d22d27" stroke="#d22d27" stroke-width="1.51"/><path d="M-3,-107L-10,-37L40,-27Z" fill="#d63e2e" stroke="#d63e2e" stroke-width="1.51"/><path d="M2,170L-22,238L68,232Z" fill="#b68645" stroke="#b68645" stroke-width="1.51"/><path d="M-32,24L37,48L40,-27Z" fill="#e57445" stroke="#e57445" stroke-width="1.51"/><path d="M-10,-37L-32,24L40,-27Z" fill="#df5e3c" stroke="#df5e3c" stroke-width="1.51"/><path d="M37,48L-29,107L42,105Z" fill="#eb9767" stroke="#eb9767" stroke-width="1.51"/><path d="M42,105L-29,107L42,146Z" fill="#e59864" stroke="#e59864" stroke-width="1.51"/><path d="M-29,107L2,170L42,146Z" fill="#da9558" stroke="#da9558" stroke-width="1.51"/><path d="M-32,24L-29,107L37,48Z" fill="#e58b59" stroke="#e58b59" stroke-width="1.51"/><path d="M-89,-73L-75,-41L-10,-37Z" fill="#cf3c30" stroke="#cf3c30" stroke-width="1.51"/><path d="M-89,-73L-10,-37L-3,-107Z" fill="#cb2e2a" stroke="#cb2e2a" stroke-width="1.51"/><path d="M-29,107L-91,149L2,170Z" fill="#d39057" stroke="#d39057" stroke-width="1.51"/><path d="M-87,207L-22,238L2,170Z" fill="#b48445" stroke="#b48445" stroke-width="1.51"/><path d="M-91,149L-87,207L2,170Z" fill="#c1894b" stroke="#c1894b" stroke-width="1.51"/><path d="M-32,24L-89,53L-29,107Z" fill="#df885a" stroke="#df885a" stroke-width="1.51"/><path d="M-75,-41L-32,24L-10,-37Z" fill="#d9583a" stroke="#d9583a" stroke-width="1.51"/><path d="M-89,53L-94,103L-29,107Z" fill="#df8f67" stroke="#df8f67" stroke-width="1.51"/><path d="M-60,296L-31,296L-22,238Z" fill="#8d6e3b" stroke="#8d6e3b" stroke-width="1.51"/><path d="M-87,207L-60,296L-22,238Z" fill="#9a7741" stroke="#9a7741" stroke-width="1.51"/><path d="M-75,-41L-89,53L-32,24Z" fill="#d96c44" stroke="#d96c44" stroke-width="1.51"/><path d="M-94,103L-91,149L-29,107Z" fill="#d89063" stroke="#d89063" stroke-width="1.51"/><path d="M-89,-73L-89,53L-75,-41Z" fill="#d25239" stroke="#d25239" stroke-width="1.51"/><path d="M-89,-73L-94,103L-89,53Z" fill="#d7734a" stroke="#d7734a" stroke-width="1.51"/></svg>